<svg width="500" height="500" viewBox="0 0 500 500" fill="none" xmlns="http://www.w3.org/2000/svg">
<path d="M394.5 162C394.5 162 398.25 111.44 345.81 77.7298C293.37 44.0198 218.46 50.5697 167.89 76.7897C117.32 103.01 124.82 162.9 108 201.29C91.1802 239.68 52.7503 246.29 55.5603 298.68C58.3703 351.07 91.1502 376.4 128.56 384.83C165.97 393.26 200.67 382.96 234.38 388.57C268.09 394.18 314.91 405.43 369.22 383.89C423.53 362.35 433.83 303.36 426.34 256.54C418.85 209.72 394.5 192.87 394.5 162Z" fill="#37474F"/>
<path opacity="0.7" d="M394.5 162C394.5 162 398.25 111.44 345.81 77.7298C293.37 44.0198 218.46 50.5697 167.89 76.7897C117.32 103.01 124.82 162.9 108 201.29C91.1802 239.68 52.7503 246.29 55.5603 298.68C58.3703 351.07 91.1502 376.4 128.56 384.83C165.97 393.26 200.67 382.96 234.38 388.57C268.09 394.18 314.91 405.43 369.22 383.89C423.53 362.35 433.83 303.36 426.34 256.54C418.85 209.72 394.5 192.87 394.5 162Z" fill="#37474F"/>
<path d="M344.1 361.12H151.32L166.54 346.43H328.88L344.1 361.12Z" fill="white" stroke="#263238" stroke-linecap="round" stroke-linejoin="round"/>
<path d="M322.68 352.1C322.68 355.1 287.77 357.57 244.68 357.57C201.59 357.57 166.68 355.12 166.68 352.1C166.68 349.08 201.59 346.62 244.68 346.62C287.77 346.62 322.68 349.07 322.68 352.1Z" fill="#4275F4"/>
<path opacity="0.5" d="M322.68 352.1C322.68 355.1 287.77 357.57 244.68 357.57C201.59 357.57 166.68 355.12 166.68 352.1C166.68 349.08 201.59 346.62 244.68 346.62C287.77 346.62 322.68 349.07 322.68 352.1Z" fill="white"/>
<path d="M344.1 361.12H151.32V374.73H344.1V361.12Z" fill="#263238" stroke="#263238" stroke-linecap="round" stroke-linejoin="round"/>
<path d="M357.74 389.41H137.68L151.32 374.73H344.1L357.74 389.41Z" fill="white" stroke="#263238" stroke-linecap="round" stroke-linejoin="round"/>
<path d="M357.7 389.41H137.72V403.73H357.7V389.41Z" fill="#263238" stroke="#263238" stroke-linecap="round" stroke-linejoin="round"/>
<path d="M245.58 215.93V124.4H280.41V85.8897" stroke="#263238" stroke-miterlimit="10"/>
<path d="M259.189 123.97V85.8897" stroke="#263238" stroke-miterlimit="10"/>
<path d="M248.18 230.52H408.54V207.72H439.19" stroke="#263238" stroke-miterlimit="10"/>
<path d="M240.32 229.73H87.8303V205.37H54.8203" stroke="#263238" stroke-miterlimit="10"/>
<path d="M214.38 61.5197V96.1097H194.729V118.11H219.1V192" stroke="#263238" stroke-miterlimit="10"/>
<path d="M322.07 163.7V114.18H335.43V92.9597H346.44" stroke="#263238" stroke-miterlimit="10"/>
<path d="M160.15 158.99V121.26L149.14 110.25V82.7397" stroke="#263238" stroke-miterlimit="10"/>
<path d="M351.939 181H379.449V162.92H397.529V152.7H413.249" stroke="#263238" stroke-miterlimit="10"/>
<path d="M132.63 187.29H103.55V164.49H62.6797" stroke="#263238" stroke-miterlimit="10"/>
<path d="M159.359 310.69V331.13H145.999V353.93H107.479" stroke="#263238" stroke-miterlimit="10"/>
<path d="M306.35 313.84V335.06H337V326.42H345.65V344.49H372.38" stroke="#263238" stroke-miterlimit="10"/>
<path d="M282.65 85.8897C282.648 86.3323 282.515 86.7644 282.268 87.1315C282.02 87.4985 281.67 87.7841 281.26 87.9521C280.851 88.1201 280.401 88.163 279.967 88.0755C279.533 87.9879 279.135 87.7738 278.822 87.4601C278.51 87.1465 278.298 86.7473 278.212 86.3131C278.127 85.8788 278.172 85.429 278.341 85.0202C278.511 84.6115 278.798 84.2623 279.166 84.0166C279.535 83.7709 279.967 83.6397 280.41 83.6397C280.705 83.6397 280.997 83.698 281.269 83.8112C281.542 83.9244 281.789 84.0903 281.997 84.2994C282.205 84.5084 282.37 84.7565 282.482 85.0295C282.594 85.3024 282.651 85.5947 282.65 85.8897Z" fill="#263238" stroke="#263238" stroke-linecap="round" stroke-linejoin="round"/>
<path d="M261.51 85.8897C261.508 86.3323 261.375 86.7644 261.128 87.1315C260.881 87.4985 260.53 87.7841 260.121 87.9521C259.711 88.1201 259.261 88.163 258.827 88.0755C258.393 87.9879 257.995 87.7738 257.683 87.4601C257.371 87.1465 257.158 86.7473 257.073 86.3131C256.987 85.8788 257.032 85.429 257.202 85.0202C257.372 84.6115 257.659 84.2623 258.027 84.0166C258.395 83.7709 258.828 83.6397 259.27 83.6397C259.565 83.6397 259.857 83.698 260.13 83.8112C260.402 83.9244 260.65 84.0903 260.858 84.2994C261.066 84.5084 261.231 84.7565 261.343 85.0295C261.455 85.3024 261.512 85.5947 261.51 85.8897Z" fill="#263238" stroke="#263238" stroke-linecap="round" stroke-linejoin="round"/>
<path d="M216.64 60.8697C216.64 61.3152 216.507 61.7506 216.26 62.1208C216.012 62.491 215.66 62.7794 215.248 62.9494C214.837 63.1194 214.384 63.1634 213.947 63.0758C213.51 62.9881 213.109 62.7728 212.795 62.4572C212.481 62.1415 212.267 61.7396 212.182 61.3025C212.096 60.8654 212.142 60.4127 212.314 60.0018C212.486 59.5908 212.776 59.2401 213.147 58.9941C213.518 58.748 213.954 58.6178 214.4 58.6197C214.695 58.6197 214.987 58.678 215.259 58.7912C215.532 58.9044 215.779 59.0703 215.987 59.2794C216.195 59.4884 216.36 59.7365 216.472 60.0095C216.584 60.2824 216.641 60.5747 216.64 60.8697Z" fill="#263238" stroke="#263238" stroke-linecap="round" stroke-linejoin="round"/>
<path d="M151.4 81.6097C151.398 82.0523 151.265 82.4844 151.018 82.8515C150.77 83.2185 150.42 83.5041 150.01 83.6721C149.601 83.8401 149.151 83.883 148.717 83.7955C148.283 83.7079 147.885 83.4938 147.572 83.1801C147.26 82.8665 147.048 82.4673 146.962 82.0331C146.877 81.5988 146.922 81.149 147.091 80.7402C147.261 80.3315 147.548 79.9823 147.916 79.7366C148.285 79.4909 148.717 79.3597 149.16 79.3597C149.455 79.3597 149.747 79.418 150.019 79.5312C150.292 79.6444 150.539 79.8103 150.747 80.0194C150.956 80.2284 151.12 80.4765 151.232 80.7495C151.344 81.0224 151.401 81.3147 151.4 81.6097Z" fill="#263238" stroke="#263238" stroke-linecap="round" stroke-linejoin="round"/>
<path d="M64.9199 164.49C64.9219 164.936 64.7913 165.372 64.5449 165.744C64.2984 166.115 63.9471 166.405 63.5356 166.577C63.124 166.748 62.6708 166.793 62.2334 166.707C61.796 166.62 61.3942 166.406 61.0789 166.091C60.7637 165.775 60.5492 165.374 60.4627 164.936C60.3762 164.499 60.4216 164.046 60.5931 163.634C60.7646 163.223 61.0546 162.871 61.4261 162.625C61.7977 162.378 62.234 162.248 62.6799 162.25C63.274 162.25 63.8437 162.486 64.2638 162.906C64.6839 163.326 64.9199 163.896 64.9199 164.49Z" fill="#263238" stroke="#263238" stroke-linecap="round" stroke-linejoin="round"/>
<path d="M57.1299 205.3C57.1299 205.745 56.9979 206.18 56.7507 206.55C56.5035 206.92 56.1521 207.208 55.7409 207.378C55.3298 207.549 54.8774 207.593 54.4409 207.507C54.0045 207.42 53.6036 207.205 53.2889 206.891C52.9742 206.576 52.7599 206.175 52.6731 205.739C52.5863 205.302 52.6309 204.85 52.8012 204.439C52.9715 204.028 53.2598 203.676 53.6299 203.429C53.9999 203.182 54.4349 203.05 54.8799 203.05C55.4766 203.05 56.0489 203.287 56.4709 203.709C56.8928 204.131 57.1299 204.703 57.1299 205.3Z" fill="#263238" stroke="#263238" stroke-linecap="round" stroke-linejoin="round"/>
<path d="M109.92 353.5C109.92 353.945 109.788 354.381 109.54 354.751C109.292 355.121 108.94 355.409 108.529 355.579C108.117 355.749 107.664 355.793 107.227 355.706C106.791 355.618 106.39 355.403 106.075 355.087C105.761 354.772 105.548 354.37 105.462 353.933C105.376 353.495 105.422 353.043 105.594 352.632C105.766 352.221 106.056 351.87 106.427 351.624C106.799 351.378 107.234 351.248 107.68 351.25C107.975 351.25 108.267 351.308 108.539 351.421C108.812 351.534 109.059 351.7 109.267 351.909C109.476 352.118 109.64 352.367 109.752 352.639C109.864 352.912 109.921 353.205 109.92 353.5Z" fill="#263238" stroke="#263238" stroke-linecap="round" stroke-linejoin="round"/>
<path d="M375.76 344.05C375.762 344.495 375.631 344.931 375.385 345.302C375.139 345.674 374.789 345.964 374.378 346.136C373.967 346.307 373.514 346.353 373.077 346.268C372.64 346.182 372.238 345.969 371.922 345.654C371.607 345.34 371.391 344.939 371.304 344.502C371.216 344.066 371.26 343.613 371.43 343.201C371.6 342.789 371.888 342.437 372.259 342.19C372.629 341.942 373.064 341.81 373.51 341.81C373.805 341.808 374.097 341.865 374.37 341.977C374.643 342.089 374.891 342.254 375.1 342.462C375.309 342.67 375.475 342.918 375.588 343.19C375.701 343.463 375.76 343.755 375.76 344.05Z" fill="#263238" stroke="#263238" stroke-linecap="round" stroke-linejoin="round"/>
<path d="M442.57 207.28C442.57 207.723 442.438 208.156 442.192 208.524C441.946 208.893 441.596 209.18 441.187 209.349C440.778 209.519 440.327 209.563 439.893 209.477C439.458 209.39 439.059 209.177 438.746 208.864C438.433 208.55 438.219 208.151 438.133 207.717C438.046 207.282 438.091 206.832 438.26 206.423C438.43 206.013 438.717 205.663 439.085 205.417C439.454 205.171 439.887 205.04 440.33 205.04C440.924 205.04 441.494 205.276 441.914 205.696C442.334 206.116 442.57 206.686 442.57 207.28Z" fill="#263238" stroke="#263238" stroke-linecap="round" stroke-linejoin="round"/>
<path d="M416.55 152.22C416.55 152.663 416.419 153.096 416.173 153.464C415.927 153.833 415.577 154.12 415.168 154.289C414.758 154.459 414.308 154.503 413.873 154.417C413.439 154.33 413.04 154.117 412.726 153.804C412.413 153.49 412.2 153.091 412.113 152.657C412.027 152.222 412.071 151.772 412.241 151.363C412.41 150.953 412.697 150.603 413.066 150.357C413.434 150.111 413.867 149.98 414.31 149.98C414.904 149.98 415.474 150.216 415.894 150.636C416.314 151.056 416.55 151.626 416.55 152.22Z" fill="#263238" stroke="#263238" stroke-linecap="round" stroke-linejoin="round"/>
<path d="M350.129 92.8998C350.129 93.3428 349.998 93.7759 349.752 94.1442C349.506 94.5126 349.156 94.7997 348.747 94.9692C348.337 95.1388 347.887 95.1831 347.452 95.0967C347.018 95.0103 346.619 94.7969 346.306 94.4837C345.992 94.1704 345.779 93.7713 345.692 93.3368C345.606 92.9022 345.65 92.4518 345.82 92.0425C345.989 91.6332 346.277 91.2834 346.645 91.0373C347.013 90.7911 347.446 90.6598 347.889 90.6598C348.484 90.6598 349.053 90.8958 349.473 91.3158C349.893 91.7359 350.129 92.3057 350.129 92.8998Z" fill="#263238" stroke="#263238" stroke-linecap="round" stroke-linejoin="round"/>
<path d="M274.92 330.5V311H216.24V330.5C216.222 336.875 214.019 343.051 210 348L207.43 351.18H283.71L281.15 348C277.13 343.052 274.931 336.874 274.92 330.5Z" fill="white"/>
<mask id="mask0_804_4686" style="mask-type:luminance" maskUnits="userSpaceOnUse" x="207" y="310" width="77" height="42">
<path d="M274.92 330.5V311H216.24V330.5C216.222 336.875 214.019 343.051 210 348L207.43 351.18H283.71L281.15 348C277.13 343.052 274.931 336.874 274.92 330.5Z" fill="white"/>
</mask>
<g mask="url(#mask0_804_4686)">
<path d="M212.64 344.16H278.52C276.162 339.993 274.922 335.287 274.92 330.5V311H216.24V330.5C216.237 335.287 214.997 339.993 212.64 344.16Z" fill="#4275F4"/>
<path opacity="0.3" d="M212.64 344.16H278.52C276.162 339.993 274.922 335.287 274.92 330.5V311H216.24V330.5C216.237 335.287 214.997 339.993 212.64 344.16Z" fill="white"/>
<path d="M212.64 323.6H278.52C276.162 319.433 274.922 314.727 274.92 309.94V290.44H216.24V309.94C216.237 314.727 214.997 319.433 212.64 323.6Z" fill="#263238"/>
</g>
<path d="M274.92 330.5V311H216.24V330.5C216.222 336.875 214.019 343.051 210 348L207.43 351.18H283.71L281.15 348C277.13 343.052 274.931 336.874 274.92 330.5Z" stroke="#263238" stroke-linecap="round" stroke-linejoin="round"/>
<path d="M355.01 143.99H136.15C131.467 143.99 127.67 147.786 127.67 152.47V308.66C127.67 313.343 131.467 317.14 136.15 317.14H355.01C359.693 317.14 363.49 313.343 363.49 308.66V152.47C363.49 147.786 359.693 143.99 355.01 143.99Z" fill="#263238" stroke="#263238" stroke-linecap="round" stroke-linejoin="round"/>
<path d="M127.67 290.23H363.49V308.66C363.49 310.909 362.596 313.066 361.006 314.656C359.416 316.246 357.259 317.14 355.01 317.14H136.15C133.901 317.14 131.744 316.246 130.154 314.656C128.563 313.066 127.67 310.909 127.67 308.66V290.23Z" fill="white" stroke="#263238" stroke-linecap="round" stroke-linejoin="round"/>
<path d="M351.62 154.77H139.53V277.1H351.62V154.77Z" fill="white" stroke="#263238" stroke-linecap="round" stroke-linejoin="round"/>
<path d="M249.93 308C249.947 307.136 249.708 306.286 249.241 305.559C248.774 304.832 248.101 304.26 247.308 303.917C246.514 303.574 245.637 303.475 244.787 303.633C243.938 303.79 243.154 304.197 242.537 304.802C241.919 305.406 241.496 306.181 241.321 307.027C241.146 307.874 241.226 308.753 241.553 309.553C241.879 310.353 242.437 311.038 243.154 311.52C243.871 312.002 244.715 312.26 245.58 312.26C246.721 312.27 247.82 311.828 248.635 311.029C249.451 310.231 249.916 309.141 249.93 308Z" fill="#263238" stroke="#263238" stroke-linecap="round" stroke-linejoin="round"/>
<path d="M283.729 351.21H207.439V354.69H283.729V351.21Z" fill="white" stroke="#263238" stroke-linecap="round" stroke-linejoin="round"/>
<path d="M245.9 148.42C235.24 158.42 207.9 168.42 176.09 189.71C176.09 189.71 178.09 261.71 245.9 301.02V148.42Z" fill="#4275F4" stroke="#263238" stroke-linecap="round" stroke-linejoin="round"/>
<path d="M245.899 148.42C256.569 158.42 283.899 168.42 315.719 189.71C315.719 189.71 313.719 261.71 245.899 301.02V148.42Z" fill="#263238" stroke="#263238" stroke-linecap="round" stroke-linejoin="round"/>
<path d="M245.9 154.55C233 163.49 210.71 172 181.21 191.74C181.21 191.74 183.06 258.44 245.9 294.9C308.75 258.44 310.6 191.74 310.6 191.74C281.1 172 258.88 163.49 245.9 154.55Z" fill="#263238" stroke="#263238" stroke-linecap="round" stroke-linejoin="round"/>
<path d="M310.599 191.74C281.099 172.01 258.879 163.49 245.899 154.55V294.9C308.749 258.44 310.599 191.74 310.599 191.74Z" fill="#4275F4" stroke="#263238" stroke-linecap="round" stroke-linejoin="round"/>
<path d="M364.219 227.05H126.939V242.41H364.219V227.05Z" fill="#263238" stroke="#263238" stroke-linecap="round" stroke-linejoin="round"/>
<path d="M131.609 229.49C131.615 229.805 131.527 230.116 131.356 230.381C131.185 230.647 130.939 230.855 130.649 230.98C130.359 231.105 130.038 231.141 129.728 231.083C129.418 231.025 129.132 230.876 128.906 230.655C128.681 230.434 128.526 230.15 128.463 229.841C128.399 229.532 128.428 229.211 128.548 228.918C128.667 228.626 128.871 228.376 129.133 228.2C129.395 228.024 129.704 227.93 130.019 227.93C130.226 227.927 130.432 227.965 130.624 228.043C130.816 228.12 130.991 228.234 131.139 228.379C131.287 228.524 131.404 228.697 131.485 228.887C131.566 229.078 131.608 229.283 131.609 229.49Z" fill="white"/>
<path d="M129.11 230.35C129.284 230.533 129.509 230.66 129.756 230.714C130.002 230.769 130.26 230.749 130.495 230.656C130.73 230.564 130.932 230.404 131.075 230.196C131.219 229.988 131.297 229.742 131.3 229.49C131.297 229.19 131.183 228.901 130.98 228.68C130.32 229.193 129.695 229.751 129.11 230.35Z" fill="#263238"/>
<path d="M137.85 229.49C137.858 229.808 137.771 230.121 137.6 230.389C137.429 230.658 137.182 230.869 136.89 230.996C136.599 231.123 136.276 231.161 135.963 231.104C135.65 231.047 135.361 230.897 135.133 230.675C134.906 230.453 134.749 230.168 134.684 229.857C134.619 229.545 134.648 229.222 134.768 228.927C134.888 228.632 135.093 228.38 135.357 228.202C135.621 228.025 135.932 227.93 136.25 227.93C136.457 227.927 136.663 227.965 136.856 228.042C137.049 228.119 137.224 228.233 137.373 228.378C137.522 228.523 137.64 228.696 137.722 228.887C137.804 229.077 137.847 229.282 137.85 229.49Z" fill="white"/>
<path d="M135.34 230.35C135.514 230.533 135.739 230.66 135.985 230.714C136.232 230.769 136.489 230.749 136.724 230.656C136.959 230.564 137.161 230.404 137.305 230.196C137.448 229.988 137.527 229.742 137.53 229.49C137.526 229.19 137.413 228.901 137.21 228.68C136.551 229.196 135.927 229.754 135.34 230.35Z" fill="#263238"/>
<path d="M144.08 229.49C144.048 229.891 143.866 230.265 143.57 230.539C143.275 230.812 142.887 230.963 142.485 230.963C142.082 230.963 141.694 230.812 141.399 230.539C141.103 230.265 140.921 229.891 140.89 229.49C140.921 229.089 141.103 228.714 141.399 228.441C141.694 228.168 142.082 228.016 142.485 228.016C142.887 228.016 143.275 228.168 143.57 228.441C143.866 228.714 144.048 229.089 144.08 229.49Z" fill="white"/>
<path d="M141.57 230.35C141.69 230.473 141.833 230.571 141.991 230.638C142.149 230.705 142.319 230.74 142.49 230.74C142.656 230.741 142.82 230.71 142.973 230.648C143.127 230.586 143.266 230.494 143.384 230.378C143.502 230.262 143.596 230.124 143.661 229.971C143.725 229.819 143.759 229.655 143.76 229.49C143.761 229.189 143.646 228.899 143.44 228.68C142.782 229.196 142.157 229.754 141.57 230.35Z" fill="#263238"/>
<path d="M150.31 229.49C150.316 229.805 150.227 230.116 150.056 230.381C149.885 230.647 149.639 230.855 149.349 230.98C149.059 231.105 148.739 231.141 148.428 231.083C148.118 231.025 147.832 230.876 147.606 230.655C147.381 230.434 147.227 230.15 147.163 229.841C147.099 229.532 147.129 229.211 147.248 228.918C147.367 228.626 147.571 228.376 147.833 228.2C148.095 228.024 148.404 227.93 148.72 227.93C148.927 227.927 149.132 227.965 149.324 228.043C149.516 228.12 149.691 228.234 149.839 228.379C149.987 228.524 150.105 228.697 150.185 228.887C150.266 229.078 150.308 229.283 150.31 229.49Z" fill="white"/>
<path d="M147.8 230.35C147.975 230.531 148.201 230.657 148.447 230.711C148.694 230.765 148.951 230.744 149.186 230.652C149.421 230.56 149.624 230.401 149.769 230.194C149.914 229.987 149.994 229.742 150 229.49C149.996 229.19 149.882 228.901 149.68 228.68C149.016 229.193 148.388 229.751 147.8 230.35Z" fill="#263238"/>
<path d="M156.54 229.49C156.546 229.805 156.458 230.116 156.287 230.381C156.116 230.647 155.87 230.855 155.58 230.98C155.29 231.105 154.969 231.141 154.659 231.083C154.348 231.025 154.062 230.876 153.837 230.655C153.611 230.434 153.457 230.15 153.393 229.841C153.329 229.532 153.359 229.211 153.478 228.918C153.598 228.626 153.802 228.376 154.064 228.2C154.326 228.024 154.634 227.93 154.95 227.93C155.157 227.927 155.363 227.965 155.555 228.043C155.747 228.12 155.922 228.234 156.07 228.379C156.217 228.524 156.335 228.697 156.416 228.887C156.497 229.078 156.539 229.283 156.54 229.49Z" fill="white"/>
<path d="M154 230.35C154.12 230.473 154.263 230.57 154.421 230.637C154.579 230.704 154.748 230.739 154.92 230.74C155.086 230.742 155.251 230.712 155.406 230.651C155.561 230.589 155.701 230.498 155.82 230.381C155.939 230.265 156.034 230.127 156.099 229.974C156.164 229.82 156.199 229.656 156.2 229.49C156.197 229.19 156.083 228.901 155.88 228.68C155.218 229.196 154.59 229.754 154 230.35Z" fill="#263238"/>
<path d="M162.77 229.49C162.776 229.805 162.687 230.116 162.516 230.381C162.345 230.647 162.099 230.855 161.809 230.98C161.519 231.105 161.199 231.141 160.888 231.083C160.578 231.025 160.292 230.876 160.066 230.655C159.841 230.434 159.686 230.15 159.623 229.841C159.559 229.532 159.589 229.211 159.708 228.918C159.827 228.626 160.031 228.376 160.293 228.2C160.555 228.024 160.864 227.93 161.18 227.93C161.387 227.927 161.592 227.965 161.784 228.043C161.976 228.12 162.151 228.234 162.299 228.379C162.447 228.524 162.565 228.697 162.645 228.887C162.726 229.078 162.768 229.283 162.77 229.49Z" fill="white"/>
<path d="M160.27 230.35C160.444 230.533 160.668 230.66 160.915 230.714C161.161 230.769 161.419 230.749 161.654 230.656C161.889 230.564 162.091 230.404 162.235 230.196C162.378 229.988 162.456 229.742 162.46 229.49C162.456 229.19 162.342 228.901 162.14 228.68C161.479 229.193 160.854 229.751 160.27 230.35Z" fill="#263238"/>
<path d="M169 229.49C169.008 229.808 168.921 230.121 168.75 230.389C168.579 230.658 168.332 230.869 168.041 230.996C167.749 231.123 167.426 231.161 167.113 231.104C166.8 231.047 166.512 230.897 166.284 230.675C166.056 230.453 165.9 230.168 165.835 229.857C165.77 229.545 165.799 229.222 165.919 228.927C166.038 228.632 166.243 228.38 166.507 228.202C166.771 228.025 167.082 227.93 167.4 227.93C167.608 227.927 167.814 227.965 168.006 228.042C168.199 228.119 168.375 228.233 168.523 228.378C168.672 228.523 168.791 228.696 168.872 228.887C168.954 229.077 168.998 229.282 169 229.49Z" fill="white"/>
<path d="M166.5 230.35C166.674 230.533 166.899 230.66 167.145 230.714C167.392 230.769 167.649 230.749 167.884 230.656C168.119 230.564 168.322 230.404 168.465 230.196C168.609 229.988 168.687 229.742 168.69 229.49C168.687 229.19 168.573 228.901 168.37 228.68C167.712 229.196 167.087 229.754 166.5 230.35Z" fill="#263238"/>
<path d="M175.24 229.49C175.246 229.805 175.158 230.116 174.987 230.381C174.816 230.647 174.57 230.855 174.28 230.98C173.99 231.105 173.669 231.141 173.359 231.083C173.048 231.025 172.762 230.876 172.537 230.655C172.312 230.434 172.157 230.15 172.093 229.841C172.03 229.532 172.059 229.211 172.179 228.918C172.298 228.626 172.502 228.376 172.764 228.2C173.026 228.024 173.335 227.93 173.65 227.93C173.857 227.927 174.063 227.965 174.255 228.043C174.447 228.12 174.622 228.234 174.77 228.379C174.918 228.524 175.035 228.697 175.116 228.887C175.197 229.078 175.239 229.283 175.24 229.49Z" fill="white"/>
<path d="M172.729 230.35C172.849 230.473 172.992 230.571 173.15 230.638C173.308 230.705 173.478 230.74 173.649 230.74C173.815 230.741 173.979 230.71 174.132 230.648C174.286 230.586 174.425 230.494 174.543 230.378C174.661 230.262 174.755 230.124 174.82 229.971C174.884 229.819 174.918 229.655 174.919 229.49C174.92 229.189 174.806 228.899 174.6 228.68C173.941 229.196 173.316 229.754 172.729 230.35Z" fill="#263238"/>
<path d="M181.47 229.49C181.476 229.805 181.388 230.116 181.216 230.381C181.045 230.647 180.799 230.855 180.509 230.98C180.219 231.105 179.899 231.141 179.588 231.083C179.278 231.025 178.992 230.876 178.766 230.655C178.541 230.434 178.387 230.15 178.323 229.841C178.259 229.532 178.289 229.211 178.408 228.918C178.528 228.626 178.731 228.376 178.993 228.2C179.255 228.024 179.564 227.93 179.88 227.93C180.087 227.927 180.292 227.965 180.484 228.043C180.677 228.12 180.852 228.234 180.999 228.379C181.147 228.524 181.265 228.697 181.345 228.887C181.426 229.078 181.468 229.283 181.47 229.49Z" fill="white"/>
<path d="M179 230.35C179.175 230.531 179.401 230.657 179.647 230.711C179.894 230.765 180.151 230.744 180.386 230.652C180.622 230.56 180.824 230.401 180.969 230.194C181.114 229.987 181.194 229.742 181.2 229.49C181.197 229.19 181.083 228.901 180.88 228.68C180.218 229.196 179.59 229.754 179 230.35Z" fill="#263238"/>
<path d="M187.7 229.49C187.706 229.805 187.618 230.116 187.447 230.381C187.276 230.647 187.03 230.855 186.74 230.98C186.45 231.105 186.129 231.141 185.819 231.083C185.508 231.025 185.222 230.876 184.997 230.655C184.772 230.434 184.617 230.15 184.553 229.841C184.49 229.532 184.519 229.211 184.639 228.918C184.758 228.626 184.962 228.376 185.224 228.2C185.486 228.024 185.794 227.93 186.11 227.93C186.317 227.927 186.523 227.965 186.715 228.043C186.907 228.12 187.082 228.234 187.23 228.379C187.378 228.524 187.495 228.697 187.576 228.887C187.657 229.078 187.699 229.283 187.7 229.49Z" fill="white"/>
<path d="M185.189 230.35C185.309 230.473 185.452 230.57 185.61 230.637C185.768 230.704 185.938 230.739 186.109 230.74C186.276 230.742 186.441 230.712 186.595 230.651C186.75 230.589 186.891 230.498 187.01 230.381C187.129 230.265 187.224 230.127 187.289 229.974C187.354 229.82 187.388 229.656 187.389 229.49C187.386 229.19 187.272 228.901 187.069 228.68C186.408 229.196 185.78 229.754 185.189 230.35Z" fill="#263238"/>
<path d="M193.93 229.49C193.936 229.805 193.848 230.116 193.676 230.381C193.505 230.647 193.259 230.855 192.969 230.98C192.679 231.105 192.359 231.141 192.048 231.083C191.738 231.025 191.452 230.876 191.226 230.655C191.001 230.434 190.847 230.15 190.783 229.841C190.719 229.532 190.749 229.211 190.868 228.918C190.988 228.626 191.191 228.376 191.453 228.2C191.715 228.024 192.024 227.93 192.34 227.93C192.547 227.927 192.752 227.965 192.944 228.043C193.136 228.12 193.311 228.234 193.459 228.379C193.607 228.524 193.725 228.697 193.805 228.887C193.886 229.078 193.928 229.283 193.93 229.49Z" fill="white"/>
<path d="M191.43 230.35C191.604 230.533 191.828 230.66 192.075 230.714C192.322 230.769 192.579 230.749 192.814 230.656C193.049 230.564 193.251 230.404 193.395 230.196C193.538 229.988 193.617 229.742 193.62 229.49C193.616 229.19 193.502 228.901 193.3 228.68C192.641 229.196 192.017 229.754 191.43 230.35Z" fill="#263238"/>
<path d="M200.17 229.49C200.178 229.808 200.091 230.122 199.92 230.39C199.748 230.659 199.501 230.87 199.208 230.997C198.916 231.124 198.593 231.161 198.28 231.103C197.966 231.045 197.678 230.895 197.45 230.672C197.223 230.449 197.067 230.163 197.003 229.851C196.939 229.539 196.97 229.215 197.091 228.92C197.213 228.626 197.419 228.374 197.685 228.198C197.95 228.021 198.262 227.928 198.58 227.93C198.787 227.927 198.993 227.965 199.185 228.043C199.377 228.12 199.552 228.234 199.7 228.379C199.848 228.524 199.965 228.697 200.046 228.887C200.127 229.078 200.169 229.283 200.17 229.49Z" fill="white"/>
<path d="M197.66 230.35C197.834 230.533 198.059 230.66 198.306 230.714C198.552 230.769 198.809 230.749 199.044 230.656C199.28 230.564 199.482 230.404 199.625 230.196C199.769 229.988 199.847 229.742 199.85 229.49C199.851 229.189 199.736 228.899 199.53 228.68C198.872 229.196 198.247 229.754 197.66 230.35Z" fill="#263238"/>
<path d="M206.399 229.49C206.405 229.805 206.317 230.116 206.146 230.381C205.975 230.647 205.729 230.855 205.439 230.98C205.149 231.105 204.828 231.141 204.518 231.083C204.208 231.025 203.922 230.876 203.696 230.655C203.471 230.434 203.316 230.15 203.253 229.841C203.189 229.532 203.218 229.211 203.338 228.918C203.457 228.626 203.661 228.376 203.923 228.2C204.185 228.024 204.494 227.93 204.809 227.93C205.016 227.927 205.222 227.965 205.414 228.043C205.606 228.12 205.781 228.234 205.929 228.379C206.077 228.524 206.194 228.697 206.275 228.887C206.356 229.078 206.398 229.283 206.399 229.49Z" fill="white"/>
<path d="M203.89 230.35C204.065 230.531 204.29 230.657 204.537 230.711C204.784 230.765 205.041 230.744 205.276 230.652C205.511 230.56 205.714 230.401 205.859 230.194C206.003 229.987 206.084 229.742 206.09 229.49C206.086 229.19 205.972 228.901 205.77 228.68C205.106 229.193 204.478 229.751 203.89 230.35Z" fill="#263238"/>
<path d="M212.63 229.49C212.636 229.805 212.548 230.116 212.377 230.381C212.206 230.647 211.959 230.855 211.669 230.98C211.379 231.105 211.059 231.141 210.749 231.083C210.438 231.025 210.152 230.876 209.927 230.655C209.701 230.434 209.547 230.15 209.483 229.841C209.419 229.532 209.449 229.211 209.568 228.918C209.688 228.626 209.891 228.376 210.154 228.2C210.416 228.024 210.724 227.93 211.04 227.93C211.247 227.927 211.452 227.965 211.645 228.043C211.837 228.12 212.012 228.234 212.159 228.379C212.307 228.524 212.425 228.697 212.506 228.887C212.586 229.078 212.629 229.283 212.63 229.49Z" fill="white"/>
<path d="M210.12 230.35C210.24 230.473 210.383 230.57 210.541 230.637C210.699 230.704 210.869 230.739 211.04 230.74C211.206 230.742 211.372 230.712 211.526 230.651C211.681 230.589 211.821 230.498 211.94 230.381C212.059 230.265 212.154 230.127 212.219 229.974C212.285 229.82 212.319 229.656 212.32 229.49C212.317 229.19 212.203 228.901 212 228.68C211.338 229.196 210.711 229.754 210.12 230.35Z" fill="#263238"/>
<path d="M131.61 239.4C131.618 239.716 131.532 240.027 131.362 240.294C131.192 240.56 130.947 240.77 130.657 240.897C130.367 241.023 130.046 241.061 129.735 241.004C129.424 240.947 129.137 240.799 128.911 240.578C128.684 240.358 128.529 240.074 128.464 239.765C128.4 239.455 128.429 239.134 128.548 238.841C128.667 238.548 128.871 238.297 129.133 238.121C129.395 237.944 129.704 237.85 130.02 237.85C130.226 237.847 130.431 237.885 130.623 237.962C130.814 238.038 130.989 238.151 131.136 238.295C131.284 238.439 131.402 238.611 131.483 238.8C131.564 238.99 131.608 239.194 131.61 239.4Z" fill="white"/>
<path d="M129.11 240.27C129.227 240.393 129.369 240.492 129.525 240.559C129.682 240.626 129.85 240.66 130.02 240.66C130.187 240.661 130.353 240.63 130.507 240.567C130.662 240.504 130.802 240.412 130.921 240.295C131.04 240.178 131.135 240.039 131.2 239.885C131.265 239.731 131.299 239.566 131.3 239.4C131.295 239.103 131.181 238.819 130.98 238.6C130.32 239.113 129.695 239.671 129.11 240.27Z" fill="#263238"/>
<path d="M137.85 239.4C137.86 239.718 137.774 240.032 137.605 240.302C137.435 240.571 137.189 240.784 136.897 240.913C136.606 241.042 136.283 241.081 135.969 241.025C135.656 240.969 135.366 240.821 135.137 240.599C134.908 240.377 134.751 240.092 134.685 239.781C134.619 239.469 134.648 239.145 134.767 238.85C134.887 238.554 135.092 238.301 135.356 238.123C135.62 237.945 135.931 237.85 136.25 237.85C136.667 237.844 137.069 238.004 137.369 238.295C137.669 238.585 137.842 238.982 137.85 239.4Z" fill="white"/>
<path d="M135.34 240.27C135.457 240.393 135.598 240.492 135.755 240.559C135.911 240.626 136.08 240.66 136.25 240.66C136.417 240.661 136.582 240.63 136.737 240.567C136.891 240.504 137.032 240.412 137.151 240.295C137.27 240.178 137.364 240.039 137.429 239.885C137.494 239.731 137.529 239.566 137.53 239.4C137.524 239.103 137.41 238.819 137.21 238.6C136.551 239.116 135.927 239.674 135.34 240.27Z" fill="#263238"/>
<path d="M144.08 239.4C144.09 239.719 144.004 240.033 143.834 240.303C143.664 240.573 143.417 240.786 143.126 240.914C142.834 241.043 142.51 241.081 142.196 241.024C141.882 240.967 141.592 240.818 141.364 240.595C141.136 240.373 140.979 240.087 140.914 239.775C140.849 239.462 140.879 239.138 141.001 238.843C141.122 238.547 141.328 238.295 141.593 238.118C141.859 237.941 142.171 237.848 142.49 237.85C142.696 237.847 142.901 237.885 143.092 237.962C143.284 238.038 143.458 238.151 143.606 238.295C143.754 238.439 143.872 238.611 143.953 238.8C144.034 238.99 144.077 239.194 144.08 239.4Z" fill="white"/>
<path d="M141.57 240.27C141.745 240.453 141.971 240.58 142.218 240.635C142.466 240.689 142.724 240.668 142.959 240.575C143.195 240.481 143.397 240.319 143.54 240.11C143.682 239.9 143.759 239.653 143.76 239.4C143.759 239.102 143.645 238.816 143.44 238.6C142.782 239.116 142.157 239.674 141.57 240.27Z" fill="#263238"/>
<path d="M150.31 239.4C150.318 239.716 150.232 240.027 150.062 240.294C149.892 240.56 149.647 240.77 149.357 240.897C149.067 241.023 148.746 241.061 148.435 241.004C148.124 240.947 147.837 240.799 147.611 240.578C147.385 240.358 147.229 240.074 147.164 239.765C147.1 239.455 147.129 239.134 147.248 238.841C147.367 238.548 147.571 238.297 147.833 238.121C148.095 237.944 148.404 237.85 148.72 237.85C148.927 237.847 149.131 237.885 149.323 237.962C149.514 238.038 149.689 238.151 149.836 238.295C149.984 238.439 150.102 238.611 150.183 238.8C150.265 238.99 150.308 239.194 150.31 239.4Z" fill="white"/>
<path d="M147.8 240.27C147.976 240.452 148.202 240.578 148.45 240.631C148.697 240.685 148.955 240.663 149.191 240.57C149.426 240.477 149.629 240.316 149.773 240.108C149.917 239.899 149.996 239.653 150 239.4C149.994 239.103 149.88 238.819 149.68 238.6C149.016 239.113 148.388 239.671 147.8 240.27Z" fill="#263238"/>
<path d="M156.54 239.4C156.548 239.716 156.461 240.027 156.292 240.294C156.122 240.56 155.876 240.77 155.587 240.897C155.297 241.023 154.976 241.061 154.665 241.004C154.354 240.947 154.067 240.799 153.84 240.578C153.614 240.358 153.459 240.074 153.394 239.765C153.329 239.455 153.358 239.134 153.477 238.841C153.597 238.548 153.8 238.297 154.062 238.121C154.325 237.944 154.634 237.85 154.95 237.85C155.156 237.847 155.361 237.885 155.552 237.962C155.744 238.038 155.918 238.151 156.066 238.295C156.214 238.439 156.331 238.611 156.413 238.8C156.494 238.99 156.537 239.194 156.54 239.4Z" fill="white"/>
<path d="M154 240.27C154.12 240.393 154.263 240.49 154.421 240.557C154.579 240.624 154.748 240.659 154.92 240.66C155.087 240.661 155.252 240.63 155.407 240.567C155.561 240.504 155.702 240.412 155.821 240.295C155.94 240.178 156.034 240.039 156.1 239.885C156.165 239.731 156.199 239.566 156.2 239.4C156.194 239.103 156.08 238.819 155.88 238.6C155.218 239.116 154.59 239.674 154 240.27Z" fill="#263238"/>
<path d="M162.77 239.4C162.778 239.716 162.692 240.027 162.522 240.294C162.352 240.56 162.107 240.77 161.817 240.897C161.527 241.023 161.206 241.061 160.895 241.004C160.584 240.947 160.297 240.799 160.071 240.578C159.845 240.358 159.689 240.074 159.624 239.765C159.56 239.455 159.589 239.134 159.708 238.841C159.827 238.548 160.031 238.297 160.293 238.121C160.555 237.944 160.864 237.85 161.18 237.85C161.386 237.847 161.591 237.885 161.783 237.962C161.974 238.038 162.149 238.151 162.296 238.295C162.444 238.439 162.562 238.611 162.643 238.8C162.725 238.99 162.768 239.194 162.77 239.4Z" fill="white"/>
<path d="M160.27 240.27C160.387 240.393 160.528 240.492 160.684 240.559C160.841 240.626 161.009 240.66 161.18 240.66C161.346 240.661 161.512 240.63 161.666 240.567C161.821 240.504 161.962 240.412 162.08 240.295C162.199 240.178 162.294 240.039 162.359 239.885C162.424 239.731 162.458 239.566 162.46 239.4C162.454 239.103 162.34 238.819 162.14 238.6C161.479 239.113 160.854 239.671 160.27 240.27Z" fill="#263238"/>
<path d="M169 239.4C169.01 239.718 168.925 240.032 168.755 240.302C168.585 240.571 168.339 240.784 168.048 240.913C167.756 241.042 167.433 241.081 167.12 241.025C166.806 240.969 166.516 240.821 166.288 240.599C166.059 240.377 165.901 240.092 165.835 239.781C165.769 239.469 165.798 239.145 165.918 238.85C166.037 238.554 166.242 238.301 166.506 238.123C166.77 237.945 167.081 237.85 167.4 237.85C167.817 237.844 168.22 238.004 168.52 238.295C168.819 238.585 168.992 238.982 169 239.4Z" fill="white"/>
<path d="M166.5 240.27C166.617 240.393 166.758 240.492 166.915 240.559C167.071 240.626 167.24 240.66 167.41 240.66C167.577 240.661 167.742 240.63 167.897 240.567C168.051 240.504 168.192 240.412 168.311 240.295C168.43 240.178 168.524 240.039 168.59 239.885C168.655 239.731 168.689 239.566 168.69 239.4C168.684 239.103 168.57 238.819 168.37 238.6C167.712 239.116 167.087 239.674 166.5 240.27Z" fill="#263238"/>
<path d="M175.24 239.4C175.248 239.716 175.162 240.027 174.992 240.294C174.822 240.56 174.576 240.77 174.287 240.897C173.997 241.023 173.676 241.061 173.365 241.004C173.054 240.947 172.767 240.799 172.541 240.578C172.314 240.358 172.159 240.074 172.094 239.765C172.029 239.455 172.059 239.134 172.178 238.841C172.297 238.548 172.5 238.297 172.763 238.121C173.025 237.944 173.334 237.85 173.65 237.85C173.856 237.847 174.061 237.885 174.252 237.962C174.444 238.038 174.618 238.151 174.766 238.295C174.914 238.439 175.032 238.611 175.113 238.8C175.194 238.99 175.237 239.194 175.24 239.4Z" fill="white"/>
<path d="M172.729 240.27C172.904 240.453 173.13 240.58 173.377 240.635C173.625 240.689 173.883 240.668 174.118 240.575C174.354 240.481 174.556 240.319 174.699 240.11C174.842 239.9 174.918 239.653 174.919 239.4C174.918 239.102 174.804 238.816 174.6 238.6C173.941 239.116 173.316 239.674 172.729 240.27Z" fill="#263238"/>
<path d="M181.47 239.4C181.477 239.716 181.391 240.027 181.221 240.294C181.051 240.56 180.806 240.77 180.516 240.897C180.226 241.023 179.906 241.061 179.595 241.004C179.284 240.947 178.997 240.799 178.77 240.578C178.544 240.358 178.388 240.074 178.324 239.765C178.259 239.455 178.288 239.134 178.407 238.841C178.526 238.548 178.73 238.297 178.992 238.121C179.254 237.944 179.563 237.85 179.88 237.85C180.086 237.847 180.29 237.885 180.482 237.962C180.673 238.038 180.848 238.151 180.996 238.295C181.143 238.439 181.261 238.611 181.342 238.8C181.424 238.99 181.467 239.194 181.47 239.4Z" fill="white"/>
<path d="M179 240.27C179.176 240.452 179.402 240.578 179.65 240.631C179.897 240.685 180.155 240.663 180.391 240.57C180.626 240.477 180.829 240.316 180.973 240.108C181.117 239.899 181.196 239.653 181.2 239.4C181.194 239.103 181.08 238.819 180.88 238.6C180.218 239.116 179.59 239.674 179 240.27Z" fill="#263238"/>
<path d="M187.7 239.4C187.708 239.716 187.622 240.027 187.452 240.294C187.282 240.56 187.036 240.77 186.747 240.897C186.457 241.023 186.136 241.061 185.825 241.004C185.514 240.947 185.227 240.799 185.001 240.578C184.774 240.358 184.619 240.074 184.554 239.765C184.489 239.455 184.519 239.134 184.638 238.841C184.757 238.548 184.96 238.297 185.223 238.121C185.485 237.944 185.794 237.85 186.11 237.85C186.316 237.847 186.521 237.885 186.712 237.962C186.904 238.038 187.078 238.151 187.226 238.295C187.374 238.439 187.492 238.611 187.573 238.8C187.654 238.99 187.697 239.194 187.7 239.4Z" fill="white"/>
<path d="M185.189 240.27C185.309 240.393 185.452 240.49 185.61 240.557C185.768 240.624 185.938 240.659 186.109 240.66C186.276 240.661 186.442 240.63 186.596 240.567C186.751 240.504 186.892 240.412 187.01 240.295C187.129 240.178 187.224 240.039 187.289 239.885C187.354 239.731 187.388 239.566 187.389 239.4C187.384 239.103 187.27 238.819 187.069 238.6C186.408 239.116 185.78 239.674 185.189 240.27Z" fill="#263238"/>
<path d="M193.929 239.4C193.937 239.716 193.851 240.027 193.681 240.294C193.511 240.56 193.266 240.77 192.976 240.897C192.686 241.023 192.366 241.061 192.055 241.004C191.744 240.947 191.456 240.799 191.23 240.578C191.004 240.358 190.848 240.074 190.784 239.765C190.719 239.455 190.748 239.134 190.867 238.841C190.986 238.548 191.19 238.297 191.452 238.121C191.714 237.944 192.023 237.85 192.339 237.85C192.546 237.847 192.75 237.885 192.942 237.962C193.133 238.038 193.308 238.151 193.456 238.295C193.603 238.439 193.721 238.611 193.802 238.8C193.884 238.99 193.927 239.194 193.929 239.4Z" fill="white"/>
<path d="M191.43 240.27C191.547 240.393 191.688 240.492 191.844 240.559C192.001 240.626 192.169 240.66 192.34 240.66C192.506 240.661 192.672 240.63 192.826 240.567C192.981 240.504 193.122 240.412 193.241 240.295C193.36 240.178 193.454 240.039 193.519 239.885C193.584 239.731 193.618 239.566 193.62 239.4C193.614 239.103 193.5 238.819 193.3 238.6C192.641 239.116 192.017 239.674 191.43 240.27Z" fill="#263238"/>
<path d="M200.17 239.4C200.18 239.719 200.094 240.033 199.924 240.303C199.754 240.573 199.507 240.786 199.215 240.914C198.923 241.043 198.6 241.081 198.286 241.024C197.972 240.967 197.682 240.818 197.454 240.595C197.225 240.373 197.069 240.087 197.004 239.775C196.939 239.462 196.969 239.138 197.09 238.843C197.211 238.547 197.418 238.295 197.683 238.118C197.949 237.941 198.261 237.848 198.58 237.85C198.786 237.847 198.991 237.885 199.182 237.962C199.374 238.038 199.548 238.151 199.696 238.295C199.844 238.439 199.961 238.611 200.043 238.8C200.124 238.99 200.167 239.194 200.17 239.4Z" fill="white"/>
<path d="M197.66 240.27C197.835 240.453 198.06 240.58 198.308 240.635C198.555 240.689 198.814 240.668 199.049 240.575C199.285 240.481 199.487 240.319 199.629 240.11C199.772 239.9 199.849 239.653 199.85 239.4C199.849 239.102 199.735 238.816 199.53 238.6C198.872 239.116 198.247 239.674 197.66 240.27Z" fill="#263238"/>
<path d="M206.4 239.4C206.408 239.716 206.322 240.027 206.152 240.294C205.982 240.56 205.737 240.77 205.447 240.897C205.157 241.023 204.836 241.061 204.525 241.004C204.214 240.947 203.927 240.799 203.701 240.578C203.474 240.358 203.319 240.074 203.254 239.765C203.19 239.455 203.219 239.134 203.338 238.841C203.457 238.548 203.661 238.297 203.923 238.121C204.185 237.944 204.494 237.85 204.81 237.85C205.016 237.847 205.221 237.885 205.413 237.962C205.604 238.038 205.779 238.151 205.926 238.295C206.074 238.439 206.192 238.611 206.273 238.8C206.354 238.99 206.398 239.194 206.4 239.4Z" fill="white"/>
<path d="M203.89 240.27C204.066 240.452 204.292 240.578 204.539 240.631C204.787 240.685 205.045 240.663 205.281 240.57C205.516 240.477 205.719 240.316 205.863 240.108C206.007 239.899 206.086 239.653 206.09 239.4C206.084 239.103 205.97 238.819 205.77 238.6C205.106 239.113 204.478 239.671 203.89 240.27Z" fill="#263238"/>
<path d="M212.63 239.4C212.638 239.716 212.551 240.027 212.381 240.294C212.212 240.56 211.966 240.77 211.676 240.897C211.387 241.023 211.066 241.061 210.755 241.004C210.444 240.947 210.157 240.799 209.93 240.578C209.704 240.358 209.548 240.074 209.484 239.765C209.419 239.455 209.448 239.134 209.567 238.841C209.686 238.548 209.89 238.297 210.152 238.121C210.415 237.944 210.724 237.85 211.04 237.85C211.246 237.847 211.451 237.885 211.642 237.962C211.834 238.038 212.008 238.151 212.156 238.295C212.303 238.439 212.421 238.611 212.503 238.8C212.584 238.99 212.627 239.194 212.63 239.4Z" fill="white"/>
<path d="M210.12 240.27C210.24 240.393 210.383 240.49 210.541 240.557C210.699 240.624 210.869 240.659 211.04 240.66C211.207 240.661 211.372 240.63 211.527 240.567C211.681 240.504 211.822 240.412 211.941 240.295C212.06 240.178 212.155 240.039 212.22 239.885C212.285 239.731 212.319 239.566 212.32 239.4C212.314 239.103 212.201 238.819 212 238.6C211.338 239.116 210.711 239.674 210.12 240.27Z" fill="#263238"/>
<path d="M281.68 229.49C281.686 229.805 281.598 230.116 281.426 230.381C281.255 230.647 281.009 230.855 280.719 230.98C280.429 231.105 280.109 231.141 279.798 231.083C279.488 231.025 279.202 230.876 278.976 230.655C278.751 230.434 278.597 230.15 278.533 229.841C278.469 229.532 278.499 229.211 278.618 228.918C278.738 228.626 278.941 228.376 279.203 228.2C279.465 228.024 279.774 227.93 280.09 227.93C280.297 227.927 280.502 227.965 280.694 228.043C280.886 228.12 281.061 228.234 281.209 228.379C281.357 228.524 281.475 228.697 281.555 228.887C281.636 229.078 281.678 229.283 281.68 229.49Z" fill="white"/>
<path d="M279.18 230.35C279.354 230.533 279.578 230.66 279.825 230.714C280.072 230.769 280.329 230.749 280.564 230.656C280.799 230.564 281.001 230.404 281.145 230.196C281.288 229.988 281.367 229.742 281.37 229.49C281.366 229.19 281.252 228.901 281.05 228.68C280.391 229.196 279.767 229.754 279.18 230.35Z" fill="#263238"/>
<path d="M287.92 229.49C287.928 229.808 287.841 230.122 287.67 230.39C287.498 230.659 287.251 230.87 286.958 230.997C286.666 231.124 286.343 231.161 286.03 231.103C285.716 231.045 285.428 230.895 285.2 230.672C284.973 230.449 284.817 230.163 284.753 229.851C284.689 229.539 284.72 229.215 284.841 228.92C284.963 228.626 285.169 228.374 285.435 228.198C285.7 228.021 286.012 227.928 286.33 227.93C286.537 227.927 286.743 227.965 286.935 228.043C287.127 228.12 287.302 228.234 287.45 228.379C287.598 228.524 287.715 228.697 287.796 228.887C287.877 229.078 287.919 229.283 287.92 229.49Z" fill="white"/>
<path d="M285.41 230.35C285.584 230.533 285.809 230.66 286.056 230.714C286.302 230.769 286.559 230.749 286.794 230.656C287.03 230.564 287.232 230.404 287.375 230.196C287.519 229.988 287.597 229.742 287.6 229.49C287.601 229.189 287.486 228.899 287.28 228.68C286.622 229.196 285.997 229.754 285.41 230.35Z" fill="#263238"/>
<path d="M294.149 229.49C294.155 229.805 294.067 230.116 293.896 230.381C293.725 230.647 293.479 230.855 293.189 230.98C292.899 231.105 292.578 231.141 292.268 231.083C291.958 231.025 291.672 230.876 291.446 230.655C291.221 230.434 291.066 230.15 291.003 229.841C290.939 229.532 290.968 229.211 291.088 228.918C291.207 228.626 291.411 228.376 291.673 228.2C291.935 228.024 292.244 227.93 292.559 227.93C292.766 227.927 292.972 227.965 293.164 228.043C293.356 228.12 293.531 228.234 293.679 228.379C293.827 228.524 293.944 228.697 294.025 228.887C294.106 229.078 294.148 229.283 294.149 229.49Z" fill="white"/>
<path d="M291.64 230.35C291.815 230.531 292.04 230.657 292.287 230.711C292.534 230.765 292.791 230.744 293.026 230.652C293.261 230.56 293.464 230.401 293.609 230.194C293.753 229.987 293.834 229.742 293.84 229.49C293.836 229.19 293.722 228.901 293.52 228.68C292.856 229.193 292.228 229.751 291.64 230.35Z" fill="#263238"/>
<path d="M300.38 229.49C300.386 229.805 300.298 230.116 300.127 230.381C299.956 230.647 299.709 230.855 299.419 230.98C299.13 231.105 298.809 231.141 298.499 231.083C298.188 231.025 297.902 230.876 297.677 230.655C297.451 230.434 297.297 230.15 297.233 229.841C297.169 229.532 297.199 229.211 297.318 228.918C297.438 228.626 297.641 228.376 297.904 228.2C298.166 228.024 298.474 227.93 298.79 227.93C298.997 227.927 299.202 227.965 299.395 228.043C299.587 228.12 299.762 228.234 299.909 228.379C300.057 228.524 300.175 228.697 300.256 228.887C300.336 229.078 300.379 229.283 300.38 229.49Z" fill="white"/>
<path d="M297.87 230.35C297.99 230.473 298.133 230.57 298.291 230.637C298.449 230.704 298.619 230.739 298.79 230.74C298.956 230.742 299.122 230.712 299.276 230.651C299.431 230.589 299.571 230.498 299.69 230.381C299.809 230.265 299.904 230.127 299.969 229.974C300.035 229.82 300.069 229.656 300.07 229.49C300.067 229.19 299.953 228.901 299.75 228.68C299.088 229.196 298.461 229.754 297.87 230.35Z" fill="#263238"/>
<path d="M306.609 229.49C306.615 229.805 306.527 230.116 306.356 230.381C306.185 230.647 305.939 230.855 305.649 230.98C305.359 231.105 305.038 231.141 304.728 231.083C304.418 231.025 304.132 230.876 303.906 230.655C303.681 230.434 303.526 230.15 303.463 229.841C303.399 229.532 303.428 229.211 303.548 228.918C303.667 228.626 303.871 228.376 304.133 228.2C304.395 228.024 304.704 227.93 305.019 227.93C305.226 227.927 305.432 227.965 305.624 228.043C305.816 228.12 305.991 228.234 306.139 228.379C306.287 228.524 306.404 228.697 306.485 228.887C306.566 229.078 306.608 229.283 306.609 229.49Z" fill="white"/>
<path d="M304.109 230.35C304.283 230.533 304.508 230.66 304.755 230.714C305.001 230.769 305.259 230.749 305.494 230.656C305.729 230.564 305.931 230.404 306.075 230.196C306.218 229.988 306.296 229.742 306.299 229.49C306.296 229.19 306.182 228.901 305.979 228.68C305.319 229.193 304.694 229.751 304.109 230.35Z" fill="#263238"/>
<path d="M312.85 229.49C312.858 229.808 312.771 230.121 312.6 230.389C312.429 230.658 312.182 230.869 311.89 230.996C311.599 231.123 311.276 231.161 310.963 231.104C310.65 231.047 310.361 230.897 310.133 230.675C309.906 230.453 309.749 230.168 309.684 229.857C309.619 229.545 309.648 229.222 309.768 228.927C309.888 228.632 310.093 228.38 310.357 228.202C310.621 228.025 310.932 227.93 311.25 227.93C311.457 227.927 311.663 227.965 311.856 228.042C312.049 228.119 312.224 228.233 312.373 228.378C312.522 228.523 312.64 228.696 312.722 228.887C312.804 229.077 312.847 229.282 312.85 229.49Z" fill="white"/>
<path d="M310.34 230.35C310.514 230.533 310.739 230.66 310.985 230.714C311.232 230.769 311.489 230.749 311.724 230.656C311.959 230.564 312.161 230.404 312.305 230.196C312.448 229.988 312.527 229.742 312.53 229.49C312.526 229.19 312.413 228.901 312.21 228.68C311.551 229.196 310.927 229.754 310.34 230.35Z" fill="#263238"/>
<path d="M319.08 229.49C319.088 229.808 319.001 230.122 318.83 230.39C318.658 230.659 318.411 230.87 318.119 230.997C317.826 231.124 317.503 231.161 317.19 231.103C316.877 231.045 316.588 230.895 316.36 230.672C316.133 230.449 315.977 230.163 315.913 229.851C315.849 229.539 315.88 229.215 316.002 228.92C316.123 228.626 316.329 228.374 316.595 228.198C316.86 228.021 317.172 227.928 317.49 227.93C317.697 227.927 317.903 227.965 318.095 228.043C318.287 228.12 318.462 228.234 318.61 228.379C318.758 228.524 318.875 228.697 318.956 228.887C319.037 229.078 319.079 229.283 319.08 229.49Z" fill="white"/>
<path d="M316.57 230.35C316.744 230.533 316.969 230.66 317.216 230.714C317.462 230.769 317.72 230.749 317.955 230.656C318.19 230.564 318.392 230.404 318.535 230.196C318.679 229.988 318.757 229.742 318.76 229.49C318.761 229.189 318.646 228.899 318.44 228.68C317.782 229.196 317.157 229.754 316.57 230.35Z" fill="#263238"/>
<path d="M325.31 229.49C325.316 229.805 325.227 230.116 325.056 230.381C324.885 230.647 324.639 230.855 324.349 230.98C324.059 231.105 323.739 231.141 323.428 231.083C323.118 231.025 322.832 230.876 322.606 230.655C322.381 230.434 322.227 230.15 322.163 229.841C322.099 229.532 322.129 229.211 322.248 228.918C322.367 228.626 322.571 228.376 322.833 228.2C323.095 228.024 323.404 227.93 323.72 227.93C323.927 227.927 324.132 227.965 324.324 228.043C324.516 228.12 324.691 228.234 324.839 228.379C324.987 228.524 325.105 228.697 325.185 228.887C325.266 229.078 325.308 229.283 325.31 229.49Z" fill="white"/>
<path d="M322.8 230.35C322.975 230.531 323.201 230.657 323.447 230.711C323.694 230.765 323.951 230.744 324.186 230.652C324.421 230.56 324.624 230.401 324.769 230.194C324.914 229.987 324.994 229.742 325 229.49C324.996 229.19 324.882 228.901 324.68 228.68C324.016 229.193 323.388 229.751 322.8 230.35Z" fill="#263238"/>
<path d="M331.54 229.49C331.546 229.805 331.458 230.116 331.287 230.381C331.116 230.647 330.87 230.855 330.58 230.98C330.29 231.105 329.969 231.141 329.659 231.083C329.348 231.025 329.062 230.876 328.837 230.655C328.611 230.434 328.457 230.15 328.393 229.841C328.329 229.532 328.359 229.211 328.478 228.918C328.598 228.626 328.802 228.376 329.064 228.2C329.326 228.024 329.634 227.93 329.95 227.93C330.157 227.927 330.363 227.965 330.555 228.043C330.747 228.12 330.922 228.234 331.07 228.379C331.217 228.524 331.335 228.697 331.416 228.887C331.497 229.078 331.539 229.283 331.54 229.49Z" fill="white"/>
<path d="M329 230.35C329.12 230.473 329.263 230.57 329.421 230.637C329.579 230.704 329.748 230.739 329.92 230.74C330.086 230.742 330.251 230.712 330.406 230.651C330.561 230.589 330.701 230.498 330.82 230.381C330.939 230.265 331.034 230.127 331.099 229.974C331.164 229.82 331.199 229.656 331.2 229.49C331.197 229.19 331.083 228.901 330.88 228.68C330.218 229.196 329.59 229.754 329 230.35Z" fill="#263238"/>
<path d="M337.77 229.49C337.776 229.805 337.687 230.116 337.516 230.381C337.345 230.647 337.099 230.855 336.809 230.98C336.519 231.105 336.199 231.141 335.888 231.083C335.578 231.025 335.292 230.876 335.066 230.655C334.841 230.434 334.686 230.15 334.623 229.841C334.559 229.532 334.589 229.211 334.708 228.918C334.827 228.626 335.031 228.376 335.293 228.2C335.555 228.024 335.864 227.93 336.18 227.93C336.387 227.927 336.592 227.965 336.784 228.043C336.976 228.12 337.151 228.234 337.299 228.379C337.447 228.524 337.565 228.697 337.645 228.887C337.726 229.078 337.768 229.283 337.77 229.49Z" fill="white"/>
<path d="M335.27 230.35C335.444 230.533 335.668 230.66 335.915 230.714C336.161 230.769 336.419 230.749 336.654 230.656C336.889 230.564 337.091 230.404 337.235 230.196C337.378 229.988 337.456 229.742 337.46 229.49C337.456 229.19 337.342 228.901 337.14 228.68C336.479 229.193 335.854 229.751 335.27 230.35Z" fill="#263238"/>
<path d="M344 229.49C344.008 229.808 343.921 230.121 343.75 230.389C343.579 230.658 343.332 230.869 343.041 230.996C342.749 231.123 342.426 231.161 342.113 231.104C341.8 231.047 341.512 230.897 341.284 230.675C341.056 230.453 340.9 230.168 340.835 229.857C340.77 229.545 340.799 229.222 340.919 228.927C341.038 228.632 341.243 228.38 341.507 228.202C341.771 228.025 342.082 227.93 342.4 227.93C342.608 227.927 342.814 227.965 343.006 228.042C343.199 228.119 343.375 228.233 343.523 228.378C343.672 228.523 343.791 228.696 343.872 228.887C343.954 229.077 343.998 229.282 344 229.49Z" fill="white"/>
<path d="M341.5 230.35C341.674 230.533 341.899 230.66 342.145 230.714C342.392 230.769 342.649 230.749 342.884 230.656C343.119 230.564 343.322 230.404 343.465 230.196C343.609 229.988 343.687 229.742 343.69 229.49C343.687 229.19 343.573 228.901 343.37 228.68C342.712 229.196 342.087 229.754 341.5 230.35Z" fill="#263238"/>
<path d="M350.24 229.49C350.246 229.805 350.158 230.116 349.987 230.381C349.816 230.647 349.57 230.855 349.28 230.98C348.99 231.105 348.669 231.141 348.359 231.083C348.048 231.025 347.762 230.876 347.537 230.655C347.312 230.434 347.157 230.15 347.093 229.841C347.03 229.532 347.059 229.211 347.179 228.918C347.298 228.626 347.502 228.376 347.764 228.2C348.026 228.024 348.335 227.93 348.65 227.93C348.857 227.927 349.063 227.965 349.255 228.043C349.447 228.12 349.622 228.234 349.77 228.379C349.918 228.524 350.035 228.697 350.116 228.887C350.197 229.078 350.239 229.283 350.24 229.49Z" fill="white"/>
<path d="M347.729 230.35C347.849 230.473 347.992 230.571 348.15 230.638C348.308 230.705 348.478 230.74 348.649 230.74C348.815 230.741 348.979 230.71 349.132 230.648C349.286 230.586 349.425 230.494 349.543 230.378C349.661 230.262 349.755 230.124 349.82 229.971C349.884 229.819 349.918 229.655 349.919 229.49C349.92 229.189 349.806 228.899 349.599 228.68C348.941 229.196 348.316 229.754 347.729 230.35Z" fill="#263238"/>
<path d="M356.47 229.49C356.476 229.805 356.388 230.116 356.217 230.381C356.045 230.647 355.799 230.855 355.509 230.98C355.219 231.105 354.899 231.141 354.588 231.083C354.278 231.025 353.992 230.876 353.767 230.655C353.541 230.434 353.387 230.15 353.323 229.841C353.259 229.532 353.289 229.211 353.408 228.918C353.528 228.626 353.731 228.376 353.993 228.2C354.255 228.024 354.564 227.93 354.88 227.93C355.087 227.927 355.292 227.965 355.484 228.043C355.677 228.12 355.852 228.234 355.999 228.379C356.147 228.524 356.265 228.697 356.345 228.887C356.426 229.078 356.468 229.283 356.47 229.49Z" fill="white"/>
<path d="M354 230.35C354.175 230.531 354.401 230.657 354.647 230.711C354.894 230.765 355.151 230.744 355.386 230.652C355.622 230.56 355.824 230.401 355.969 230.194C356.114 229.987 356.194 229.742 356.2 229.49C356.197 229.19 356.083 228.901 355.88 228.68C355.218 229.196 354.59 229.754 354 230.35Z" fill="#263238"/>
<path d="M362.7 229.49C362.706 229.805 362.618 230.116 362.447 230.381C362.276 230.647 362.03 230.855 361.74 230.98C361.45 231.105 361.129 231.141 360.819 231.083C360.508 231.025 360.222 230.876 359.997 230.655C359.772 230.434 359.617 230.15 359.553 229.841C359.49 229.532 359.519 229.211 359.639 228.918C359.758 228.626 359.962 228.376 360.224 228.2C360.486 228.024 360.794 227.93 361.11 227.93C361.317 227.927 361.523 227.965 361.715 228.043C361.907 228.12 362.082 228.234 362.23 228.379C362.378 228.524 362.495 228.697 362.576 228.887C362.657 229.078 362.699 229.283 362.7 229.49Z" fill="white"/>
<path d="M360.189 230.35C360.309 230.473 360.452 230.57 360.61 230.637C360.768 230.704 360.938 230.739 361.109 230.74C361.276 230.742 361.441 230.712 361.595 230.651C361.75 230.589 361.891 230.498 362.01 230.381C362.129 230.265 362.224 230.127 362.289 229.974C362.354 229.82 362.388 229.656 362.389 229.49C362.386 229.19 362.272 228.901 362.069 228.68C361.408 229.196 360.78 229.754 360.189 230.35Z" fill="#263238"/>
<path d="M281.679 239.4C281.687 239.716 281.601 240.027 281.431 240.294C281.261 240.56 281.016 240.77 280.726 240.897C280.436 241.023 280.116 241.061 279.805 241.004C279.494 240.947 279.207 240.799 278.98 240.578C278.754 240.358 278.598 240.074 278.534 239.765C278.469 239.455 278.498 239.134 278.617 238.841C278.736 238.548 278.94 238.297 279.202 238.121C279.464 237.944 279.773 237.85 280.089 237.85C280.296 237.847 280.5 237.885 280.692 237.962C280.883 238.038 281.058 238.151 281.206 238.295C281.353 238.439 281.471 238.611 281.552 238.8C281.634 238.99 281.677 239.194 281.679 239.4Z" fill="white"/>
<path d="M279.18 240.27C279.297 240.393 279.438 240.492 279.594 240.559C279.751 240.626 279.919 240.66 280.09 240.66C280.256 240.661 280.422 240.63 280.576 240.567C280.731 240.504 280.872 240.412 280.991 240.295C281.11 240.178 281.204 240.039 281.269 239.885C281.334 239.731 281.368 239.566 281.37 239.4C281.364 239.103 281.25 238.819 281.05 238.6C280.391 239.116 279.767 239.674 279.18 240.27Z" fill="#263238"/>
<path d="M287.92 239.4C287.93 239.719 287.844 240.033 287.674 240.303C287.504 240.573 287.257 240.786 286.965 240.914C286.673 241.043 286.35 241.081 286.036 241.024C285.722 240.967 285.432 240.818 285.204 240.595C284.975 240.373 284.819 240.087 284.754 239.775C284.689 239.462 284.719 239.138 284.84 238.843C284.961 238.547 285.168 238.295 285.433 238.118C285.699 237.941 286.011 237.848 286.33 237.85C286.536 237.847 286.741 237.885 286.932 237.962C287.124 238.038 287.298 238.151 287.446 238.295C287.594 238.439 287.711 238.611 287.793 238.8C287.874 238.99 287.917 239.194 287.92 239.4Z" fill="white"/>
<path d="M285.41 240.27C285.585 240.453 285.81 240.58 286.058 240.635C286.305 240.689 286.564 240.668 286.799 240.575C287.035 240.481 287.237 240.319 287.379 240.11C287.522 239.9 287.599 239.653 287.6 239.4C287.599 239.102 287.485 238.816 287.28 238.6C286.622 239.116 285.997 239.674 285.41 240.27Z" fill="#263238"/>
<path d="M294.15 239.4C294.158 239.716 294.072 240.027 293.902 240.294C293.732 240.56 293.487 240.77 293.197 240.897C292.907 241.023 292.586 241.061 292.275 241.004C291.964 240.947 291.677 240.799 291.451 240.578C291.224 240.358 291.069 240.074 291.004 239.765C290.94 239.455 290.969 239.134 291.088 238.841C291.207 238.548 291.411 238.297 291.673 238.121C291.935 237.944 292.244 237.85 292.56 237.85C292.766 237.847 292.971 237.885 293.163 237.962C293.354 238.038 293.529 238.151 293.676 238.295C293.824 238.439 293.942 238.611 294.023 238.8C294.104 238.99 294.148 239.194 294.15 239.4Z" fill="white"/>
<path d="M291.64 240.27C291.816 240.452 292.042 240.578 292.289 240.631C292.537 240.685 292.795 240.663 293.03 240.57C293.266 240.477 293.469 240.316 293.613 240.108C293.757 239.899 293.836 239.653 293.84 239.4C293.834 239.103 293.72 238.819 293.52 238.6C292.856 239.113 292.228 239.671 291.64 240.27Z" fill="#263238"/>
<path d="M300.38 239.4C300.388 239.716 300.301 240.027 300.131 240.294C299.962 240.56 299.716 240.77 299.426 240.897C299.137 241.023 298.816 241.061 298.505 241.004C298.194 240.947 297.907 240.799 297.68 240.578C297.454 240.358 297.298 240.074 297.234 239.765C297.169 239.455 297.198 239.134 297.317 238.841C297.436 238.548 297.64 238.297 297.902 238.121C298.165 237.944 298.474 237.85 298.79 237.85C298.996 237.847 299.201 237.885 299.392 237.962C299.584 238.038 299.758 238.151 299.906 238.295C300.053 238.439 300.171 238.611 300.253 238.8C300.334 238.99 300.377 239.194 300.38 239.4Z" fill="white"/>
<path d="M297.87 240.27C297.99 240.393 298.133 240.49 298.291 240.557C298.449 240.624 298.619 240.659 298.79 240.66C298.957 240.661 299.122 240.63 299.277 240.567C299.431 240.504 299.572 240.412 299.691 240.295C299.81 240.178 299.905 240.039 299.97 239.885C300.035 239.731 300.069 239.566 300.07 239.4C300.064 239.103 299.951 238.819 299.75 238.6C299.088 239.116 298.461 239.674 297.87 240.27Z" fill="#263238"/>
<path d="M306.61 239.4C306.618 239.716 306.532 240.027 306.362 240.294C306.192 240.56 305.947 240.77 305.657 240.897C305.367 241.023 305.046 241.061 304.735 241.004C304.424 240.947 304.137 240.799 303.911 240.578C303.684 240.358 303.529 240.074 303.464 239.765C303.4 239.455 303.429 239.134 303.548 238.841C303.667 238.548 303.871 238.297 304.133 238.121C304.395 237.944 304.704 237.85 305.02 237.85C305.226 237.847 305.431 237.885 305.623 237.962C305.814 238.038 305.989 238.151 306.136 238.295C306.284 238.439 306.402 238.611 306.483 238.8C306.564 238.99 306.608 239.194 306.61 239.4Z" fill="white"/>
<path d="M304.109 240.27C304.227 240.393 304.368 240.492 304.524 240.559C304.681 240.626 304.849 240.66 305.019 240.66C305.186 240.661 305.352 240.63 305.506 240.567C305.661 240.504 305.801 240.412 305.92 240.295C306.039 240.178 306.134 240.039 306.199 239.885C306.264 239.731 306.298 239.566 306.299 239.4C306.294 239.103 306.18 238.819 305.979 238.6C305.319 239.113 304.694 239.671 304.109 240.27Z" fill="#263238"/>
<path d="M312.85 239.4C312.86 239.718 312.774 240.032 312.605 240.302C312.435 240.571 312.189 240.784 311.897 240.913C311.606 241.042 311.283 241.081 310.969 241.025C310.656 240.969 310.366 240.821 310.137 240.599C309.908 240.377 309.751 240.092 309.685 239.781C309.619 239.469 309.648 239.145 309.767 238.85C309.887 238.554 310.092 238.301 310.356 238.123C310.62 237.945 310.931 237.85 311.25 237.85C311.667 237.844 312.069 238.004 312.369 238.295C312.669 238.585 312.842 238.982 312.85 239.4Z" fill="white"/>
<path d="M310.34 240.27C310.457 240.393 310.598 240.492 310.755 240.559C310.911 240.626 311.08 240.66 311.25 240.66C311.417 240.661 311.582 240.63 311.737 240.567C311.891 240.504 312.032 240.412 312.151 240.295C312.27 240.178 312.364 240.039 312.429 239.885C312.494 239.731 312.529 239.566 312.53 239.4C312.524 239.103 312.41 238.819 312.21 238.6C311.551 239.116 310.927 239.674 310.34 240.27Z" fill="#263238"/>
<path d="M319.08 239.4C319.09 239.719 319.004 240.033 318.834 240.303C318.664 240.573 318.417 240.786 318.126 240.914C317.834 241.043 317.51 241.081 317.196 241.024C316.882 240.967 316.592 240.818 316.364 240.595C316.136 240.373 315.979 240.087 315.914 239.775C315.849 239.462 315.88 239.138 316.001 238.843C316.122 238.547 316.328 238.295 316.593 238.118C316.859 237.941 317.171 237.848 317.49 237.85C317.696 237.847 317.901 237.885 318.092 237.962C318.284 238.038 318.458 238.151 318.606 238.295C318.754 238.439 318.872 238.611 318.953 238.8C319.034 238.99 319.077 239.194 319.08 239.4Z" fill="white"/>
<path d="M316.57 240.27C316.745 240.453 316.971 240.58 317.218 240.635C317.466 240.689 317.724 240.668 317.959 240.575C318.195 240.481 318.397 240.319 318.54 240.11C318.682 239.9 318.759 239.653 318.76 239.4C318.759 239.102 318.645 238.816 318.44 238.6C317.782 239.116 317.157 239.674 316.57 240.27Z" fill="#263238"/>
<path d="M325.31 239.4C325.318 239.716 325.232 240.027 325.062 240.294C324.892 240.56 324.647 240.77 324.357 240.897C324.067 241.023 323.746 241.061 323.435 241.004C323.124 240.947 322.837 240.799 322.611 240.578C322.385 240.358 322.229 240.074 322.164 239.765C322.1 239.455 322.129 239.134 322.248 238.841C322.367 238.548 322.571 238.297 322.833 238.121C323.095 237.944 323.404 237.85 323.72 237.85C323.927 237.847 324.131 237.885 324.323 237.962C324.514 238.038 324.689 238.151 324.836 238.295C324.984 238.439 325.102 238.611 325.183 238.8C325.265 238.99 325.308 239.194 325.31 239.4Z" fill="white"/>
<path d="M322.8 240.27C322.976 240.452 323.202 240.578 323.45 240.631C323.697 240.685 323.955 240.663 324.191 240.57C324.426 240.477 324.629 240.316 324.773 240.108C324.917 239.899 324.996 239.653 325 239.4C324.994 239.103 324.88 238.819 324.68 238.6C324.016 239.113 323.388 239.671 322.8 240.27Z" fill="#263238"/>
<path d="M331.54 239.4C331.548 239.716 331.461 240.027 331.292 240.294C331.122 240.56 330.876 240.77 330.587 240.897C330.297 241.023 329.976 241.061 329.665 241.004C329.354 240.947 329.067 240.799 328.84 240.578C328.614 240.358 328.459 240.074 328.394 239.765C328.329 239.455 328.358 239.134 328.477 238.841C328.597 238.548 328.8 238.297 329.062 238.121C329.325 237.944 329.634 237.85 329.95 237.85C330.156 237.847 330.361 237.885 330.552 237.962C330.744 238.038 330.918 238.151 331.066 238.295C331.214 238.439 331.331 238.611 331.413 238.8C331.494 238.99 331.537 239.194 331.54 239.4Z" fill="white"/>
<path d="M329 240.27C329.12 240.393 329.263 240.49 329.421 240.557C329.579 240.624 329.748 240.659 329.92 240.66C330.087 240.661 330.252 240.63 330.407 240.567C330.561 240.504 330.702 240.412 330.821 240.295C330.94 240.178 331.034 240.039 331.1 239.885C331.165 239.731 331.199 239.566 331.2 239.4C331.194 239.103 331.08 238.819 330.88 238.6C330.218 239.116 329.59 239.674 329 240.27Z" fill="#263238"/>
<path d="M337.77 239.4C337.778 239.716 337.692 240.027 337.522 240.294C337.352 240.56 337.107 240.77 336.817 240.897C336.527 241.023 336.206 241.061 335.895 241.004C335.584 240.947 335.297 240.799 335.071 240.578C334.845 240.358 334.689 240.074 334.624 239.765C334.56 239.455 334.589 239.134 334.708 238.841C334.827 238.548 335.031 238.297 335.293 238.121C335.555 237.944 335.864 237.85 336.18 237.85C336.386 237.847 336.591 237.885 336.783 237.962C336.974 238.038 337.149 238.151 337.296 238.295C337.444 238.439 337.562 238.611 337.643 238.8C337.725 238.99 337.768 239.194 337.77 239.4Z" fill="white"/>
<path d="M335.27 240.27C335.387 240.393 335.528 240.492 335.684 240.559C335.841 240.626 336.009 240.66 336.18 240.66C336.346 240.661 336.512 240.63 336.666 240.567C336.821 240.504 336.962 240.412 337.081 240.295C337.199 240.178 337.294 240.039 337.359 239.885C337.424 239.731 337.458 239.566 337.46 239.4C337.454 239.103 337.34 238.819 337.14 238.6C336.479 239.113 335.854 239.671 335.27 240.27Z" fill="#263238"/>
<path d="M344 239.4C344.01 239.718 343.925 240.032 343.755 240.302C343.585 240.571 343.339 240.784 343.048 240.913C342.756 241.042 342.433 241.081 342.12 241.025C341.806 240.969 341.516 240.821 341.288 240.599C341.059 240.377 340.901 240.092 340.835 239.781C340.769 239.469 340.798 239.145 340.918 238.85C341.037 238.554 341.242 238.301 341.506 238.123C341.77 237.945 342.081 237.85 342.4 237.85C342.817 237.844 343.22 238.004 343.52 238.295C343.819 238.585 343.992 238.982 344 239.4Z" fill="white"/>
<path d="M341.5 240.27C341.617 240.393 341.758 240.492 341.915 240.559C342.071 240.626 342.24 240.66 342.41 240.66C342.577 240.661 342.742 240.63 342.897 240.567C343.051 240.504 343.192 240.412 343.311 240.295C343.43 240.178 343.524 240.039 343.59 239.885C343.655 239.731 343.689 239.566 343.69 239.4C343.684 239.103 343.57 238.819 343.37 238.6C342.712 239.116 342.087 239.674 341.5 240.27Z" fill="#263238"/>
<path d="M350.24 239.4C350.248 239.716 350.162 240.027 349.992 240.294C349.822 240.56 349.576 240.77 349.287 240.897C348.997 241.023 348.676 241.061 348.365 241.004C348.054 240.947 347.767 240.799 347.541 240.578C347.314 240.358 347.159 240.074 347.094 239.765C347.03 239.455 347.059 239.134 347.178 238.841C347.297 238.548 347.5 238.297 347.763 238.121C348.025 237.944 348.334 237.85 348.65 237.85C348.856 237.847 349.061 237.885 349.252 237.962C349.444 238.038 349.618 238.151 349.766 238.295C349.914 238.439 350.032 238.611 350.113 238.8C350.194 238.99 350.237 239.194 350.24 239.4Z" fill="white"/>
<path d="M347.729 240.27C347.904 240.453 348.13 240.58 348.377 240.635C348.625 240.689 348.883 240.668 349.118 240.575C349.354 240.481 349.556 240.319 349.699 240.11C349.842 239.9 349.918 239.653 349.919 239.4C349.918 239.102 349.804 238.816 349.599 238.6C348.941 239.116 348.316 239.674 347.729 240.27Z" fill="#263238"/>
<path d="M356.47 239.4C356.477 239.716 356.391 240.027 356.221 240.294C356.051 240.56 355.806 240.77 355.516 240.897C355.226 241.023 354.906 241.061 354.595 241.004C354.284 240.947 353.997 240.799 353.77 240.578C353.544 240.358 353.388 240.074 353.324 239.765C353.259 239.455 353.288 239.134 353.407 238.841C353.526 238.548 353.73 238.297 353.992 238.121C354.254 237.944 354.563 237.85 354.88 237.85C355.086 237.847 355.29 237.885 355.482 237.962C355.673 238.038 355.848 238.151 355.996 238.295C356.143 238.439 356.261 238.611 356.342 238.8C356.424 238.99 356.467 239.194 356.47 239.4Z" fill="white"/>
<path d="M354 240.27C354.176 240.452 354.402 240.578 354.65 240.631C354.897 240.685 355.155 240.663 355.391 240.57C355.626 240.477 355.829 240.316 355.973 240.108C356.117 239.899 356.196 239.653 356.2 239.4C356.194 239.103 356.08 238.819 355.88 238.6C355.218 239.116 354.59 239.674 354 240.27Z" fill="#263238"/>
<path d="M362.7 239.4C362.708 239.716 362.622 240.027 362.452 240.294C362.282 240.56 362.036 240.77 361.747 240.897C361.457 241.023 361.136 241.061 360.825 241.004C360.514 240.947 360.227 240.799 360.001 240.578C359.774 240.358 359.619 240.074 359.554 239.765C359.489 239.455 359.519 239.134 359.638 238.841C359.757 238.548 359.96 238.297 360.223 238.121C360.485 237.944 360.794 237.85 361.11 237.85C361.316 237.847 361.521 237.885 361.712 237.962C361.904 238.038 362.078 238.151 362.226 238.295C362.374 238.439 362.492 238.611 362.573 238.8C362.654 238.99 362.697 239.194 362.7 239.4Z" fill="white"/>
<path d="M360.189 240.27C360.309 240.393 360.452 240.49 360.61 240.557C360.768 240.624 360.938 240.659 361.109 240.66C361.276 240.661 361.442 240.63 361.596 240.567C361.751 240.504 361.892 240.412 362.01 240.295C362.129 240.178 362.224 240.039 362.289 239.885C362.354 239.731 362.388 239.566 362.389 239.4C362.384 239.103 362.27 238.819 362.069 238.6C361.408 239.116 360.78 239.674 360.189 240.27Z" fill="#263238"/>
<path d="M270.41 221.8H222.2C221.153 221.8 220.148 221.39 219.4 220.657C218.652 219.924 218.221 218.927 218.2 217.88V195.64C218.2 180.47 230.81 168.12 246.31 168.12C261.81 168.12 274.43 180.47 274.43 195.64V217.88C274.409 218.93 273.976 219.93 273.224 220.664C272.471 221.397 271.461 221.805 270.41 221.8ZM226.2 214H266.4V195.64C266.4 190.309 264.283 185.196 260.513 181.427C256.744 177.657 251.631 175.54 246.3 175.54C240.969 175.54 235.857 177.657 232.087 181.427C228.318 185.196 226.2 190.309 226.2 195.64V214Z" fill="white" stroke="#263238" stroke-linecap="round" stroke-linejoin="round"/>
<path d="M276.59 211.08H215.21V261.86H276.59V211.08Z" fill="#4275F4" stroke="#263238" stroke-linecap="round" stroke-linejoin="round"/>
<path d="M252.29 232.17C252.223 230.442 251.49 228.806 250.243 227.607C248.997 226.408 247.334 225.738 245.605 225.738C243.875 225.738 242.213 226.408 240.967 227.607C239.72 228.806 238.987 230.442 238.92 232.17C238.925 233.358 239.255 234.523 239.874 235.538C240.492 236.553 241.376 237.38 242.43 237.93L241.31 249.46H249.9L248.78 237.93C249.834 237.38 250.718 236.553 251.336 235.538C251.955 234.523 252.285 233.358 252.29 232.17Z" fill="#263238" stroke="#263238" stroke-linecap="round" stroke-linejoin="round"/>
<path d="M384.5 437C410.734 437 432 432.299 432 426.5C432 420.701 410.734 416 384.5 416C358.266 416 337 420.701 337 426.5C337 432.299 358.266 437 384.5 437Z" fill="#4275F4"/>
<path opacity="0.5" d="M384.5 437C410.734 437 432 432.299 432 426.5C432 420.701 410.734 416 384.5 416C358.266 416 337 420.701 337 426.5C337 432.299 358.266 437 384.5 437Z" fill="white"/>
<path d="M359.66 415.76C359.66 415.76 348.14 422.24 348.14 425.36C348.14 428.48 355.25 426.56 359.9 424.36C364.55 422.16 368.24 420.52 368.24 416.2C368.24 411.88 359.66 415.76 359.66 415.76Z" fill="#4275F4" stroke="#263238" stroke-miterlimit="10"/>
<path d="M414.81 415.76C414.81 415.76 426.33 422.24 426.33 425.36C426.33 428.48 419.22 426.56 414.57 424.36C409.92 422.16 406.23 420.52 406.23 416.2C406.23 411.88 414.81 415.76 414.81 415.76Z" fill="#4275F4" stroke="#263238" stroke-miterlimit="10"/>
<path d="M364.32 309.69L359.41 417C360.089 417.558 360.874 417.974 361.718 418.222C362.562 418.469 363.447 418.543 364.32 418.44C365.844 418.214 367.235 417.447 368.24 416.28L384.91 328.69H388.34L406 417.92C407.055 418.504 408.227 418.845 409.43 418.92C411.14 418.92 413.84 416.76 413.84 416.76L408.2 309.76L364.32 309.69Z" fill="#263238" stroke="#263238" stroke-miterlimit="10"/>
<path d="M381.48 244.66L359.17 253.77L365.05 305.61H407.7L415.55 251.85L391.28 244.18L381.48 244.66Z" fill="#4275F4" stroke="#263238" stroke-miterlimit="10"/>
<path d="M383.93 252.09L386.62 256.41L382.21 293.61L387.6 301.53L392.26 292.89L388.58 255.93L391.77 250.9L387.11 248.86L383.93 252.09Z" fill="#263238" stroke="#263238" stroke-miterlimit="10"/>
<path d="M387.11 248.86L383.53 254.99L377.15 246.49L380.72 242.24L387.11 248.86Z" fill="#4275F4" stroke="#263238" stroke-miterlimit="10"/>
<path d="M387.11 248.86L391.45 255.61L396.68 245.99L393.62 242.11L387.11 248.86Z" fill="#4275F4" stroke="#263238" stroke-miterlimit="10"/>
<path d="M378.45 263.37H363.42V268.49L370.94 271.37L378.45 268.17V263.37Z" fill="#4275F4" stroke="#263238" stroke-miterlimit="10"/>
<path d="M408.52 263.37H393.49V268.49L401 271.37L408.52 268.17V263.37Z" fill="#4275F4" stroke="#263238" stroke-miterlimit="10"/>
<path d="M408.2 304.65H364.32V309.69H408.2V304.65Z" fill="#263238" stroke="#263238" stroke-miterlimit="10"/>
<path d="M363.58 308.73L355.98 311.85C355.855 314.022 356.02 316.201 356.47 318.33C357.21 321.21 358.19 327.45 358.92 328.65C359.65 329.85 363.34 332.25 363.83 331.53C364.32 330.81 366.77 309.69 366.77 309.69L363.58 308.73Z" fill="#263238" stroke="#263238" stroke-miterlimit="10"/>
<path d="M380.72 233.49V242.24L387.11 248.86L393.62 242.11V233.36L380.72 233.49Z" fill="white" stroke="#263238" stroke-miterlimit="10"/>
<path d="M376.26 225.37C376.26 225.37 375.11 222.74 374.34 224.37C373.57 226 374.47 228.49 375.62 229.49C376.465 230.103 377.513 230.371 378.55 230.24L377.91 226.49L376.26 225.37Z" fill="white" stroke="#263238" stroke-miterlimit="10"/>
<path d="M397.06 225.37C397.06 225.37 398.21 222.74 398.98 224.37C399.75 226 398.85 228.49 397.7 229.49C396.85 230.104 395.799 230.372 394.76 230.24L395.4 226.49L397.06 225.37Z" fill="white" stroke="#263238" stroke-miterlimit="10"/>
<path d="M378.43 208C378.43 208 373.06 210.25 373.06 214C373.06 217.75 373.83 222 375.11 223.63C376.39 225.26 377.4 226.38 377.4 226.38L377.66 221L381.36 214.63C381.36 214.63 387.49 218.5 390.55 218.5C392.26 218.515 393.969 218.391 395.66 218.13L396.81 224.5L398.47 219.88V215.63C398.47 215.63 401.53 212.75 400.89 210.88C400.25 209.01 389.89 203.13 383.53 204.63C377.17 206.13 378.43 208 378.43 208Z" fill="#263238" stroke="#263238" stroke-miterlimit="10"/>
<path d="M375.87 220.62C375.87 220.62 377.4 229.99 378.68 232.49C380.363 235.264 382.427 237.788 384.81 239.99C385.7 240.61 389.02 240.11 390.3 240.11C391.58 240.11 395.3 232.61 395.91 231.24C396.52 229.87 396.91 218.12 396.91 218.12L395.79 216C395.79 216 390.3 217.38 385.96 215.63C383.604 214.786 381.497 213.366 379.83 211.5C379.83 211.5 379.45 215.75 377.91 218.25C376.37 220.75 375.87 220.62 375.87 220.62Z" fill="white" stroke="#263238" stroke-miterlimit="10"/>
<path d="M385.7 221.62C384.156 220.813 382.443 220.385 380.7 220.37C379.205 220.311 377.717 220.609 376.36 221.24C376.36 221.24 376.36 225.49 377.77 227.12C379.18 228.75 383.26 228.24 384.41 226.87C385.56 225.5 385.7 221.62 385.7 221.62Z" fill="#263238" stroke="#263238" stroke-miterlimit="10"/>
<path d="M387.49 221.62C389.034 220.813 390.748 220.385 392.49 220.37C393.985 220.311 395.473 220.609 396.83 221.24C396.83 221.24 396.83 225.49 395.42 227.12C394.01 228.75 389.93 228.24 388.79 226.87C387.65 225.5 387.49 221.62 387.49 221.62Z" fill="#263238" stroke="#263238" stroke-miterlimit="10"/>
<path d="M385.7 221.62H387.49" stroke="#263238" stroke-miterlimit="10"/>
<path d="M359.41 300.81L367.5 300.57L373.63 306.09C373.62 306.796 373.362 307.476 372.9 308.01C372.16 308.73 370.2 308.25 370.2 308.25C370.2 308.25 368.73 311.85 366.03 311.85C363.33 311.85 356.03 306.85 356.03 306.85L359.41 300.81Z" fill="white" stroke="#263238" stroke-miterlimit="10"/>
<path d="M359.17 253.77L331.96 289.53L355.98 306.81L359.41 300.81L352.06 286.65L362.11 277.53L359.17 253.77Z" fill="#4275F4" stroke="#263238" stroke-miterlimit="10"/>
<path d="M357.45 296.73L353.29 304.17" stroke="#263238" stroke-linecap="round" stroke-linejoin="round"/>
<path d="M352.06 286.65L348.87 278.49" stroke="#263238" stroke-linecap="round" stroke-linejoin="round"/>
<path d="M415.55 300.81L407.46 300.57L401.33 306.09C401.343 306.797 401.605 307.477 402.07 308.01C402.8 308.73 404.76 308.25 404.76 308.25C404.76 308.25 406.23 311.85 408.93 311.85C411.63 311.85 418.98 306.85 418.98 306.85L415.55 300.81Z" fill="white" stroke="#263238" stroke-miterlimit="10"/>
<path d="M415.55 251.85L443 289.53L418.98 306.81L415.55 300.81L422.9 286.65L411.38 277.29L415.55 251.85Z" fill="#4275F4" stroke="#263238" stroke-miterlimit="10"/>
<path d="M417.51 296.73L421.67 304.17" stroke="#263238" stroke-linecap="round" stroke-linejoin="round"/>
<path d="M422.9 286.65L426.09 278.49" stroke="#263238" stroke-linecap="round" stroke-linejoin="round"/>
<path d="M106.5 437C132.734 437 154 432.299 154 426.5C154 420.701 132.734 416 106.5 416C80.2665 416 59 420.701 59 426.5C59 432.299 80.2665 437 106.5 437Z" fill="#4275F4"/>
<path opacity="0.5" d="M106.5 437C132.734 437 154 432.299 154 426.5C154 420.701 132.734 416 106.5 416C80.2665 416 59 420.701 59 426.5C59 432.299 80.2665 437 106.5 437Z" fill="white"/>
<path d="M81.8198 415.76C81.8198 415.76 70.2998 422.24 70.2998 425.36C70.2998 428.48 77.4098 426.56 82.0698 424.36C86.7298 422.16 90.3998 420.52 90.3998 416.2C90.3998 411.88 81.8198 415.76 81.8198 415.76Z" fill="#4275F4" stroke="#263238" stroke-miterlimit="10"/>
<path d="M137 415.76C137 415.76 148.52 422.24 148.52 425.36C148.52 428.48 141.42 426.56 136.76 424.36C132.1 422.16 128.42 420.52 128.42 416.2C128.42 411.88 137 415.76 137 415.76Z" fill="#4275F4" stroke="#263238" stroke-miterlimit="10"/>
<path d="M86.4801 309.69L81.5801 417C82.257 417.559 83.0402 417.975 83.8825 418.222C84.7247 418.47 85.6084 418.544 86.4801 418.44C88.0038 418.214 89.3954 417.447 90.4001 416.28L107.07 328.69H110.5L128.15 417.96C129.205 418.544 130.377 418.885 131.58 418.96C133.3 418.96 135.99 416.8 135.99 416.8L130.35 309.8L86.4801 309.69Z" fill="#263238" stroke="#263238" stroke-miterlimit="10"/>
<path d="M103.64 244.66L81.3301 253.77L87.2101 305.61H129.87L137.71 251.85L113.44 244.18L103.64 244.66Z" fill="#4275F4" stroke="#263238" stroke-miterlimit="10"/>
<path d="M130.36 304.65H86.4805V309.69H130.36V304.65Z" fill="#263238" stroke="#263238" stroke-miterlimit="10"/>
<path d="M85.7399 308.73L78.1399 311.85C78.0153 314.022 78.18 316.201 78.6299 318.33C79.3699 321.21 80.3499 327.45 81.0899 328.65C81.8299 329.85 85.4999 332.25 85.9899 331.53C86.4799 330.81 88.9299 309.69 88.9299 309.69L85.7399 308.73Z" fill="#263238" stroke="#263238" stroke-miterlimit="10"/>
<path d="M102.89 233.49V242.24L109.27 248.86L115.78 242.11V233.36L102.89 233.49Z" fill="white" stroke="#263238" stroke-miterlimit="10"/>
<path d="M98.4198 225.37C98.4198 225.37 97.2698 222.74 96.4998 224.37C95.7298 226 96.6298 228.49 97.7798 229.49C98.6291 230.104 99.6801 230.372 100.72 230.24L100.08 226.49L98.4198 225.37Z" fill="white" stroke="#263238" stroke-miterlimit="10"/>
<path d="M119.22 225.37C119.22 225.37 120.37 222.74 121.14 224.37C121.91 226 121.01 228.49 119.86 229.49C119.014 230.103 117.966 230.371 116.93 230.24L117.56 226.49L119.22 225.37Z" fill="white" stroke="#263238" stroke-miterlimit="10"/>
<path d="M100.59 208C100.59 208 95.2305 210.25 95.2305 214C95.2305 217.75 95.9905 222 97.2305 223.63C98.4705 225.26 99.5305 226.38 99.5305 226.38L99.7805 221L103.48 214.63C103.48 214.63 109.61 218.5 112.67 218.5C114.381 218.515 116.09 218.391 117.78 218.13L118.93 224.5L120.59 219.88V215.63C120.59 215.63 123.65 212.75 123.01 210.88C122.37 209.01 112.01 203.13 105.65 204.63C99.2905 206.13 100.59 208 100.59 208Z" fill="#263238" stroke="#263238" stroke-miterlimit="10"/>
<path d="M98 220.62C98 220.62 99.54 229.99 100.81 232.49C102.514 235.269 104.597 237.797 107 240C107.89 240.62 111.21 240.12 112.49 240.12C113.77 240.12 117.49 232.62 118.11 231.25C118.73 229.88 119.11 218.13 119.11 218.13L118 216C118 216 112.51 217.38 108.17 215.63C105.814 214.786 103.707 213.366 102.04 211.5C102.04 211.5 101.66 215.75 100.13 218.25C98.6 220.75 98 220.62 98 220.62Z" fill="white" stroke="#263238" stroke-miterlimit="10"/>
<path d="M107.861 221.62C106.316 220.813 104.603 220.385 102.861 220.37C101.365 220.311 99.8774 220.609 98.5205 221.24C98.5205 221.24 98.5205 225.49 99.9205 227.12C101.321 228.75 105.411 228.24 106.561 226.87C107.711 225.5 107.861 221.62 107.861 221.62Z" fill="#263238" stroke="#263238" stroke-miterlimit="10"/>
<path d="M109.65 221.62C111.195 220.813 112.908 220.385 114.65 220.37C116.146 220.311 117.633 220.609 118.99 221.24C118.99 221.24 118.99 225.49 117.58 227.12C116.17 228.75 112.1 228.24 110.95 226.87C109.8 225.5 109.65 221.62 109.65 221.62Z" fill="#263238" stroke="#263238" stroke-miterlimit="10"/>
<path d="M107.86 221.62H109.65" stroke="#263238" stroke-miterlimit="10"/>
<path d="M106.09 252.09L108.78 256.41L104.37 293.61L109.77 301.53L114.42 292.89L110.75 255.93L113.93 250.9L109.27 248.86L106.09 252.09Z" fill="#263238" stroke="#263238" stroke-miterlimit="10"/>
<path d="M109.271 248.86L105.691 254.99L99.3105 246.49L102.891 242.24L109.271 248.86Z" fill="#4275F4" stroke="#263238" stroke-miterlimit="10"/>
<path d="M109.271 248.86L113.611 255.61L118.841 245.99L115.781 242.11L109.271 248.86Z" fill="#4275F4" stroke="#263238" stroke-miterlimit="10"/>
<path d="M81.3301 253.77L54.1201 289.53L78.1401 306.81L81.5801 300.81L74.2201 286.65L84.2701 277.53L81.3301 253.77Z" fill="#4275F4" stroke="#263238" stroke-miterlimit="10"/>
<path d="M81.5804 300.81L89.6604 300.57L95.7904 306.09C95.7806 306.796 95.5221 307.476 95.0604 308.01C94.3204 308.73 92.3604 308.25 92.3604 308.25C92.3604 308.25 90.8904 311.85 88.1904 311.85C85.4904 311.85 78.1904 306.85 78.1904 306.85L81.5804 300.81Z" fill="white" stroke="#263238" stroke-miterlimit="10"/>
<path d="M79.6202 296.73L75.4502 304.17" stroke="#263238" stroke-linecap="round" stroke-linejoin="round"/>
<path d="M74.22 286.65L71.04 278.49" stroke="#263238" stroke-linecap="round" stroke-linejoin="round"/>
<path d="M137.71 251.85L165.16 289.53L141.14 306.81L137.71 300.81L145.06 286.65L133.54 277.29L137.71 251.85Z" fill="#4275F4" stroke="#263238" stroke-miterlimit="10"/>
<path d="M137.71 300.81L129.62 300.57L123.49 306.09C123.503 306.797 123.765 307.477 124.23 308.01C124.96 308.73 126.92 308.25 126.92 308.25C126.92 308.25 128.39 311.85 131.09 311.85C133.79 311.85 141.09 306.85 141.09 306.85L137.71 300.81Z" fill="white" stroke="#263238" stroke-miterlimit="10"/>
<path d="M139.67 296.73L143.84 304.17" stroke="#263238" stroke-linecap="round" stroke-linejoin="round"/>
<path d="M145.061 286.65L148.251 278.49" stroke="#263238" stroke-linecap="round" stroke-linejoin="round"/>
<path d="M100.61 263.37H85.5801V268.49L93.1001 271.37L100.61 268.17V263.37Z" fill="#4275F4" stroke="#263238" stroke-miterlimit="10"/>
<path d="M130.68 263.37H115.65V268.49L123.17 271.37L130.68 268.17V263.37Z" fill="#4275F4" stroke="#263238" stroke-miterlimit="10"/>
</svg>
