<svg width="510" height="490" viewBox="0 0 510 490" fill="none" xmlns="http://www.w3.org/2000/svg">
<g clip-path="url(#clip0_734_1521)">
<path d="M0 123.88L1.49 47.8501C1.49 47.8501 1.19 -0.749914 53.96 0.750086C106.73 2.25009 107.33 0.720086 107.33 0.720086C107.33 0.720086 153.54 -0.439915 153.24 53.8201L65.29 54.1201C65.29 54.1201 55.15 54.4201 53.66 70.5201V123.89H0V123.88Z" fill="#4275F4"/>
<path d="M97.49 77.3701H154.92L153.24 140.2C153.24 140.2 152.57 175.08 124.17 182.69C124.17 182.69 150.33 188.5 153.24 227.19L154.92 358C154.92 358 156.37 373.65 163.53 384.83L46.58 383.71C46.58 383.71 1.86 385.72 0.97 332.28L0 240.45L53.37 241.05V312.6C53.37 312.6 53.99 328.94 69.92 330.94C71.11 331.09 98.09 330.49 98.09 330.49L97.79 226.29C97.79 226.29 98.57 207.62 79.79 209.3L26.39 209.15V155.78C26.39 155.78 83.04 155.63 84.38 155.33C85.72 155.03 97.05 155.93 97.65 137.89C98.25 119.85 97.5 77.3701 97.5 77.3701H97.49Z" fill="#4275F4"/>
<path d="M177.84 54.11C177.84 54.92 333.25 54.11 333.25 54.11V0L229.27 0.71C229.27 0.71 196.18 1.79 184.55 22.58C184.55 22.58 177.62 35.77 177.84 54.11Z" fill="#4275F4"/>
<path d="M177.84 77.3701H233.45V329.9H264.75C264.75 329.9 277.27 331.1 277.27 309.92V194.24C277.27 194.24 277.57 180.75 259.98 182.31L259.76 132.59L272.36 129.83L298.89 129.68C298.89 129.68 334.67 126.55 333.47 175.89L333.5 331.97C333.5 331.97 334.51 382.65 290.39 383.25H214.66C214.66 383.25 181.91 383.09 177.83 340.91C173.8 299.17 180.62 77.3501 177.83 77.3501L177.84 77.3701Z" fill="#4275F4"/>
<path d="M356.28 212.6L409.13 211.56V171.31C409.13 171.31 411.37 150.51 427.02 148.95H442C442 148.95 452.96 149.62 452.51 164.83V313.08C452.51 313.08 454.08 327.69 442.45 330.37H423.07C423.07 330.37 410.85 331.56 409.36 316.66V240.93H356.29V337.83C356.29 337.83 359.28 384.19 404.44 384.41L469.28 382.84C469.28 382.84 507.29 386.42 509.08 326.04V137.32C509.08 137.32 511.54 99.31 477.78 96.18H443.34C443.34 96.18 418.3 99.53 409.35 126.59L407.34 45.42C407.34 45.42 404.43 8.29998 376.93 3.15998L356.28 0.47998V212.61V212.6Z" fill="#4275F4"/>
<path d="M436.33 56.13H509.71V2.45996H415.31C415.31 2.45996 436.93 16.99 436.33 56.13Z" fill="#4275F4"/>
<path d="M2.31005 426.98C2.31005 426.98 3.54005 418.59 14.94 417.7H58.32V431.56H21.88C21.88 431.56 19.2001 431.67 19.08 434.69L19.3 442.4C19.3 442.4 19.5201 444.97 22.43 445.31L54.41 446.09C54.41 446.09 60.78 448.66 61.68 454.36C62.5801 460.06 61.68 478.58 61.68 478.58C61.68 478.58 60.3 487.75 46.2901 489.09H4.17005L4.32005 473.59L39.05 473.74C39.05 473.74 43.17 471.69 43.67 468.17L43.5601 464.54C43.5601 464.54 42.67 460.29 39.87 460.4C37.07 460.51 11.47 460.18 11.47 460.18C11.47 460.18 4.31005 457.94 2.30005 450.64V426.97L2.31005 426.98Z" fill="#A2AFC0"/>
<path d="M72.45 417.7C72.9 417.25 89.89 417.7 89.89 417.7L90.49 465.55C90.49 465.55 89.89 471.81 98.09 473.45H110.16C110.16 473.45 117.17 472.7 118.51 464.8V417.49H135.8V472.55C135.8 472.55 134.16 486.41 118.06 489.1H94.8C94.8 489.1 71.69 488.35 72.44 469.87V417.7H72.45Z" fill="#A2AFC0"/>
<path d="M200.26 453.31C209.38 453.31 209.74 444.08 209.74 444.08L209.13 429.34C208.41 420.97 196.79 418.14 196.79 418.14L147.74 417.5V489.09H164.88V462.76L184.56 462.87C188.57 462.66 190.61 468.34 190.61 468.34L190.36 489.09H208.82C208.82 489.09 209.03 467.02 208.71 462.76C208.39 458.68 200.98 453.78 200.27 453.32L200.26 453.31ZM186.91 447.34C182.33 447.77 164.19 447.34 164.19 447.34V431.88H188.02C188.02 431.88 190.81 433.35 191.03 437.03V441.82C191.03 441.82 191.5 446.86 186.92 447.33L186.91 447.34Z" fill="#A2AFC0"/>
<path d="M215.26 417.5C216.01 417.1 237.02 417.5 237.02 417.5L256.4 469.13L278.61 417.5H297.99L267.73 489.1H244.03L215.26 417.5Z" fill="#A2AFC0"/>
<path d="M304.1 417.32H358.07V433.05H320.65L320.35 445.87H356.28V459.88L320.5 460.63V472.11H358.07V489.55H304.1V417.32Z" fill="#A2AFC0"/>
<path d="M364.63 417.32H386.54L405.32 444.83L423.81 417.32H446.32L414.12 460.18V489.55H396.53V460.33L364.63 417.32Z" fill="#A2AFC0"/>
<path d="M462.74 417.76C476.75 416.8 490.83 417.18 504.87 417.56C504.87 422.17 504.85 426.77 504.85 431.38C493.22 431.4 481.59 431.42 469.96 431.44C468.96 431.44 467.85 431.49 467.15 432.2C466.7 432.66 466.51 433.31 466.37 433.93C465.81 436.38 465.66 438.92 465.91 441.42C466.01 442.35 466.18 443.32 466.77 444.04C467.78 445.27 469.59 445.36 471.18 445.35C478.87 445.3 486.56 445.25 494.25 445.21C497.48 445.19 500.91 445.23 503.62 446.99C506.5 448.87 507.95 452.37 508.38 455.79C508.81 459.21 508.41 462.67 508.46 466.11C508.55 471.57 509.7 477.48 506.92 482.17C505.12 485.21 501.9 487.19 498.51 488.2C495.12 489.21 491.55 489.35 488.03 489.44C476.49 489.74 464.93 489.63 453.39 489.52C449.87 489.49 450.66 486.52 450.68 483.87C450.71 480.54 450.77 477.2 450.87 473.87C461.62 473.79 472.37 473.71 483.12 473.63C484.33 473.63 485.59 473.6 486.69 473.1C489.37 471.87 490.06 468.38 489.89 465.44C489.81 464.17 489.61 462.83 488.77 461.87C487.52 460.42 485.35 460.34 483.43 460.36C478.21 460.42 472.99 460.49 467.77 460.55C464.46 460.59 461.1 460.62 457.9 459.76C454.7 458.89 451.64 456.99 450.13 454.04C448.8 451.45 448.81 448.4 448.85 445.48C448.93 440.05 449.01 434.63 449.09 429.2C449.12 426.98 449.18 424.66 450.27 422.73C452.35 419.03 457.22 418.19 461.45 417.88C461.88 417.85 462.3 417.82 462.73 417.79L462.74 417.76Z" fill="#A2AFC0"/>
</g>
<defs>
<clipPath id="clip0_734_1521">
<rect width="509.71" height="489.62" fill="white"/>
</clipPath>
</defs>
</svg>
