<svg width="500" height="334" viewBox="0 0 500 334" fill="none" xmlns="http://www.w3.org/2000/svg">
<path d="M422.827 52.7067L394.647 109.553L403.06 109.873L379.18 155.04H391.72L372.16 195.173H481.52L457.44 155.04L468.98 154.54L445.9 109.393L454.427 108.893L422.827 52.7067Z" fill="#37474F"/>
<path d="M427.593 118.667C427.753 118.667 427.527 152.993 427.093 195.333C426.66 237.673 425.967 276.76 425.96 276.6C425.913 267.547 426.073 237.673 426.513 195.333C426.953 152.993 427.427 118.667 427.593 118.667Z" fill="#E0E0E0"/>
<path d="M440.993 133.26C441.12 133.36 438.327 137.22 434.72 141.88C431.113 146.54 428.107 150.233 428 150.133C427.893 150.033 430.667 146.18 434.273 141.52C437.88 136.86 440.867 133.16 440.993 133.26Z" fill="#E0E0E0"/>
<path d="M427.333 148.927C427.233 149.053 424.453 147.06 421.133 144.467C417.813 141.873 415.193 139.673 415.287 139.54C415.38 139.407 418.167 141.413 421.493 144.007C424.82 146.6 427.427 148.8 427.333 148.927Z" fill="#E0E0E0"/>
<path d="M426.573 176.813C425.831 176.343 425.136 175.8 424.5 175.193C423.26 174.147 421.553 172.707 419.64 171.14C417.727 169.573 415.96 168.2 414.687 167.2C413.965 166.699 413.295 166.127 412.687 165.493C413.489 165.857 414.243 166.319 414.933 166.867C416.267 167.787 418.08 169.12 420.007 170.687C421.933 172.253 423.606 173.76 424.78 174.887C425.455 175.452 426.057 176.1 426.573 176.813Z" fill="#E0E0E0"/>
<path d="M441.013 159.573C441.133 159.68 438.06 163.72 434.133 168.6C430.206 173.48 426.926 177.353 426.8 177.267C426.673 177.18 429.753 173.127 433.68 168.247C437.606 163.367 440.886 159.473 441.013 159.573Z" fill="#E0E0E0"/>
<path d="M102.74 52.7067L77.0667 104.5L84.7334 104.787L62.9801 145.947H74.4001L56.5801 182.507H156.213L134.273 145.947L144.787 145.487L123.767 104.353L131.533 103.893L102.74 52.7067Z" fill="#37474F"/>
<path d="M107.08 112.787C107.227 112.787 107.027 144.053 106.633 182.62C106.24 221.187 105.793 264.913 105.647 264.907C105.5 264.9 105.7 221.193 106.1 182.613C106.5 144.033 106.933 112.787 107.08 112.787Z" fill="#E0E0E0"/>
<path d="M119.293 126.1C119.406 126.187 116.846 129.707 113.573 133.947C110.3 138.187 107.573 141.567 107.44 141.473C107.306 141.38 109.88 137.873 113.153 133.627C116.426 129.38 119.173 126 119.293 126.1Z" fill="#E0E0E0"/>
<path d="M106.84 140.373C106.747 140.487 104.22 138.667 101.194 136.307C98.167 133.947 95.7804 131.94 95.8604 131.82C95.9404 131.7 98.4804 133.527 101.514 135.887C104.547 138.247 106.927 140.26 106.84 140.373Z" fill="#E0E0E0"/>
<path d="M106.16 165.78C105.479 165.354 104.845 164.858 104.267 164.3C103.14 163.353 101.6 162.033 99.8333 160.613C98.0667 159.193 96.5 157.947 95.3267 157.02C94.6671 156.565 94.0551 156.045 93.5 155.467C94.2335 155.796 94.9232 156.214 95.5533 156.713C96.7733 157.553 98.42 158.773 100.173 160.2C101.927 161.627 103.447 162.993 104.52 164.02C105.135 164.539 105.685 165.13 106.16 165.78Z" fill="#E0E0E0"/>
<path d="M119.334 150.073C119.447 150.167 116.667 153.847 113.074 158.293C109.48 162.74 106.507 166.293 106.407 166.18C106.307 166.067 109.074 162.413 112.667 157.96C116.26 153.507 119.194 150 119.334 150.073Z" fill="#E0E0E0"/>
<path d="M58.5333 122.007L38.76 161.9L44.6666 162.127L27.9066 193.82H36.7066L22.98 221.987H95.3133L82.8266 193.82L90.92 193.467L74.7266 161.787L80.7133 161.433L58.5333 122.007Z" fill="#37474F"/>
<path d="M61.8801 168.28C61.9934 168.28 61.8334 192.367 61.5334 222.067C61.2334 251.767 60.8668 275.86 60.7734 275.86C60.6801 275.86 60.8134 251.78 61.1201 222.067C61.4268 192.353 61.7668 168.28 61.8801 168.28Z" fill="#E0E0E0"/>
<path d="M71.2865 178.54C69.9257 180.63 68.4547 182.646 66.8798 184.58C65.41 186.597 63.8321 188.533 62.1531 190.38C62.0665 190.307 64.0331 187.6 66.5531 184.333C69.0731 181.067 71.1931 178.467 71.2865 178.54Z" fill="#E0E0E0"/>
<path d="M61.6936 189.533C61.6202 189.62 59.6936 188.2 57.3402 186.4C55.8899 185.352 54.5194 184.198 53.2402 182.947C53.3136 182.853 55.2402 184.28 57.5936 186.073C59.9469 187.867 61.7602 189.44 61.6936 189.533Z" fill="#E0E0E0"/>
<path d="M61.1666 209.1C60.645 208.77 60.1581 208.388 59.7133 207.96C58.8399 207.227 57.6399 206.213 56.2999 205.12C54.9599 204.027 53.7199 203.053 52.8266 202.353C52.3181 202.002 51.8468 201.6 51.4199 201.153C51.9838 201.41 52.5143 201.735 52.9999 202.12C53.9399 202.787 55.2066 203.7 56.5599 204.787C57.9133 205.873 59.0799 206.94 59.8933 207.733C60.3731 208.134 60.8009 208.593 61.1666 209.1Z" fill="#E0E0E0"/>
<path d="M71.2928 197C71.3862 197.073 69.2262 199.907 66.4728 203.333C63.7195 206.76 61.4128 209.48 61.3262 209.407C62.8285 207.219 64.4394 205.107 66.1528 203.08C68.9062 199.653 71.2062 196.933 71.2928 197Z" fill="#E0E0E0"/>
<path d="M401.793 276.747C375.74 296.267 340.78 299.04 308.346 296.313C275.913 293.587 243.68 286.113 211.173 288.047C192.766 289.14 174.6 293.24 156.166 293.567C137.733 293.893 118.166 289.84 104.833 277.107L401.793 276.747Z" fill="#37474F"/>
<path d="M156.566 90H244.566C244.566 90 236.78 75.8333 214.12 77.8933C192.48 79.8933 191.38 70.9267 180.38 69.8267C169.38 68.7267 160.24 77.16 156.566 90Z" fill="#EBEBEB"/>
<path d="M234.96 114.227H282.96C282.96 114.227 278.713 106.507 266.36 107.627C254.56 108.7 253.96 103.827 247.96 103.227C241.96 102.627 236.96 107.227 234.96 114.227Z" fill="#F5F5F5"/>
<path d="M284.92 69.2867H332.92C332.92 69.2867 328.667 61.56 316.32 62.6667C304.52 63.74 303.92 58.8667 297.92 58.2667C291.92 57.6667 286.92 62.2867 284.92 69.2867Z" fill="#FAFAFA"/>
<path d="M478.286 276.34C478.286 276.44 376.04 276.513 249.946 276.513C123.853 276.513 21.5864 276.44 21.5864 276.34C21.5864 276.24 123.806 276.167 249.946 276.167C376.086 276.167 478.286 276.247 478.286 276.34Z" fill="#263238"/>
<path d="M448.561 210.613C451.718 214.014 453.537 218.443 453.679 223.082C453.821 227.72 452.277 232.253 449.334 235.84C446.654 239.052 443.28 241.614 439.467 243.333L406.707 258.093L383.567 261.673L80.7271 259.753L61.7471 256.04C57.3141 255.172 53.3265 252.775 50.4803 249.267C47.6341 245.759 46.1099 241.363 46.1738 236.847L46.3671 223.66C46.3839 222.669 46.7161 221.708 47.3154 220.918C47.9148 220.128 48.7502 219.55 49.7005 219.267L51.0338 218.853C51.0338 218.853 52.1538 205.927 59.9538 203C88.3805 190.753 107.194 186.82 154.774 184.833L194.954 160.833C194.954 160.833 211.174 150.467 226.287 149.107C241.4 147.747 275.62 147.733 291.294 148.633C309.7 149.693 333.054 158.067 346.08 164.527C356.28 169.587 380.834 182.087 380.834 182.087L394.721 184.413C396.814 184.513 435.167 186.853 439.574 187.527C441.177 187.787 442.677 188.485 443.909 189.544C445.14 190.603 446.056 191.981 446.554 193.527C447.654 197.167 448.554 210.533 448.554 210.533" fill="#4275F4"/>
<path d="M331.334 165.207C324.787 161.933 307.227 157.42 297.407 155.58C287.587 153.74 267.627 153.487 259.654 153.687C251.68 153.887 229.52 154.273 217.84 157.587C211.84 159.293 202.18 164.293 196.507 168.48C194.507 169.933 185.947 176.66 184.034 178.187L169.167 192.067L351.834 186.3C351.834 186.3 352.887 179.933 349.6 176.267C346.314 172.6 331.334 165.207 331.334 165.207Z" fill="#263238"/>
<path d="M60.3543 218.073L51.1143 217.94C51.4743 215.447 52.6943 208.82 56.6476 205.107L68.8809 205.287C69.3888 205.294 69.8858 205.435 70.3211 205.697C70.7565 205.959 71.1148 206.331 71.3594 206.776C71.604 207.221 71.7262 207.723 71.7136 208.231C71.701 208.739 71.554 209.234 71.2876 209.667L69.0609 213.287C68.1486 214.77 66.8665 215.992 65.3402 216.831C63.814 217.67 62.0958 218.098 60.3543 218.073Z" fill="#FAFAFA"/>
<path d="M61.474 217.513C62.434 213.447 63.6473 208.1 67.0807 205.26H68.8807C69.3885 205.267 69.8855 205.409 70.3209 205.67C70.7562 205.932 71.1145 206.304 71.3591 206.749C71.6037 207.195 71.7259 207.697 71.7133 208.204C71.7007 208.712 71.5537 209.208 71.2873 209.64L69.0606 213.26C68.2371 214.603 67.108 215.732 65.7652 216.556C64.4225 217.379 62.9042 217.874 61.334 218L61.474 217.513Z" fill="#E0E0E0"/>
<g opacity="0.7">
<path d="M151.134 260.313C152.113 255.56 152.325 250.68 151.76 245.86C149.374 225.347 135.94 210.587 115.647 210.293C97.9871 210.04 83.4004 221.073 80.4204 241.507C79.5485 247.606 79.7561 253.812 81.0337 259.84L151.134 260.313Z" fill="black"/>
</g>
<g opacity="0.7">
<path d="M406.668 258.18C406.668 257.427 406.581 256.653 406.568 255.853C406.208 229.967 388.841 212.033 368.188 211.733C359.113 211.612 350.361 215.096 343.852 221.42C337.343 227.744 333.608 236.392 333.468 245.467C333.381 251.227 333.108 256.647 333.788 261.427L383.528 261.76L406.668 258.18Z" fill="black"/>
</g>
<path d="M337.894 245.527C337.809 251.424 339.474 257.214 342.68 262.165C345.885 267.115 350.487 271.004 355.903 273.34C361.319 275.675 367.305 276.352 373.106 275.285C378.906 274.218 384.26 271.455 388.49 267.345C392.72 263.235 395.637 257.963 396.871 252.196C398.105 246.428 397.601 240.425 395.422 234.944C393.244 229.463 389.49 224.751 384.633 221.404C379.777 218.057 374.038 216.225 368.14 216.14C360.233 216.026 352.603 219.058 346.931 224.569C341.259 230.08 338.008 237.619 337.894 245.527Z" fill="#263238"/>
<path d="M337.894 245.453V245.527C337.837 249.443 338.553 253.332 339.999 256.971C341.446 260.611 343.595 263.93 346.324 266.739C349.053 269.548 352.309 271.791 355.905 273.342C359.501 274.893 363.368 275.72 367.284 275.777C371.2 275.833 375.089 275.118 378.728 273.671C382.368 272.225 385.687 270.076 388.496 267.347C391.305 264.618 393.549 261.362 395.099 257.766C396.65 254.169 397.477 250.303 397.534 246.387C397.534 246.387 397.534 246.34 397.534 246.313L337.894 245.453Z" fill="#263238"/>
<path d="M346.774 245.66C346.721 249.8 347.895 253.863 350.15 257.335C352.405 260.808 355.639 263.534 359.442 265.169C363.246 266.804 367.449 267.275 371.52 266.522C375.591 265.769 379.348 263.826 382.315 260.939C385.283 258.052 387.328 254.35 388.192 250.301C389.055 246.252 388.7 242.037 387.169 238.19C385.639 234.343 383.002 231.036 379.593 228.687C376.183 226.339 372.154 225.053 368.014 224.993C365.262 224.954 362.529 225.457 359.972 226.474C357.414 227.492 355.082 229.004 353.11 230.923C351.137 232.843 349.562 235.132 348.475 237.661C347.388 240.19 346.81 242.908 346.774 245.66Z" fill="#FAFAFA"/>
<path d="M368.001 225.02C365.249 224.981 362.516 225.485 359.959 226.503C357.402 227.521 355.071 229.033 353.098 230.952C351.125 232.871 349.551 235.16 348.463 237.689C347.376 240.217 346.797 242.935 346.761 245.687L388.634 246.287C388.677 243.535 388.178 240.802 387.164 238.243C386.15 235.685 384.642 233.352 382.726 231.376C380.809 229.401 378.522 227.823 375.996 226.733C373.469 225.642 370.752 225.06 368.001 225.02Z" fill="#E0E0E0"/>
<path d="M354.96 245.773C354.924 248.296 355.636 250.772 357.007 252.89C358.378 255.007 360.346 256.671 362.662 257.669C364.978 258.668 367.539 258.958 370.02 258.502C372.501 258.045 374.791 256.863 376.6 255.105C378.409 253.348 379.656 251.093 380.184 248.626C380.711 246.159 380.495 243.591 379.563 241.247C378.632 238.903 377.025 236.888 374.948 235.457C372.871 234.026 370.416 233.243 367.894 233.207C364.512 233.159 361.25 234.455 358.825 236.812C356.4 239.169 355.009 242.392 354.96 245.773Z" fill="#263238"/>
<path d="M117.564 276.536C134.021 275.797 146.762 261.858 146.024 245.402C145.285 228.946 131.346 216.204 114.889 216.943C98.4332 217.681 85.6916 231.621 86.4302 248.077C87.1688 264.533 101.108 277.275 117.564 276.536Z" fill="#263238"/>
<path d="M86.4338 246.22C86.4338 246.22 86.4338 246.273 86.4338 246.3C86.3197 254.209 89.3521 261.839 94.8638 267.512C100.375 273.185 107.915 276.436 115.824 276.55C123.733 276.664 131.363 273.632 137.036 268.12C142.709 262.608 145.96 255.069 146.074 247.16V247.08L86.4338 246.22Z" fill="#263238"/>
<path d="M95.3342 246.427C95.274 250.568 96.4433 254.634 98.6943 258.111C100.945 261.588 104.177 264.319 107.98 265.96C111.784 267.6 115.988 268.075 120.061 267.326C124.135 266.576 127.895 264.635 130.865 261.749C133.836 258.862 135.883 255.16 136.749 251.109C137.615 247.059 137.261 242.843 135.73 238.994C134.2 235.145 131.562 231.837 128.151 229.487C124.74 227.137 120.709 225.852 116.568 225.793C111.016 225.715 105.661 227.845 101.679 231.714C97.6972 235.583 95.415 240.875 95.3342 246.427Z" fill="#FAFAFA"/>
<path d="M116.547 225.793C110.999 225.72 105.649 227.852 101.672 231.721C97.6942 235.59 95.4148 240.879 95.334 246.427L137.207 247.033C137.247 244.282 136.744 241.549 135.727 238.992C134.71 236.435 133.199 234.104 131.28 232.131C129.361 230.158 127.072 228.583 124.544 227.496C122.016 226.408 119.299 225.83 116.547 225.793Z" fill="#E0E0E0"/>
<path d="M103.494 246.547C103.453 249.069 104.162 251.548 105.53 253.668C106.898 255.787 108.864 257.454 111.18 258.456C113.495 259.458 116.056 259.751 118.538 259.298C121.02 258.844 123.312 257.664 125.123 255.908C126.935 254.152 128.184 251.897 128.714 249.431C129.244 246.964 129.031 244.395 128.1 242.05C127.17 239.705 125.565 237.688 123.488 236.255C121.412 234.822 118.957 234.037 116.434 234C113.055 233.95 109.794 235.243 107.368 237.596C104.942 239.948 103.548 243.168 103.494 246.547Z" fill="#263238"/>
<g opacity="0.4">
<path d="M58.5538 239.893C58.5072 243.227 56.8138 245.893 54.7805 245.893C52.7472 245.893 51.1272 243.127 51.1738 239.787C51.2205 236.447 52.9138 233.787 54.9538 233.787C56.9938 233.787 58.6005 236.553 58.5538 239.893Z" fill="black"/>
</g>
<path d="M448.561 210.613C448.372 210.649 448.18 210.664 447.988 210.66L446.334 210.72C444.901 210.753 442.827 210.8 440.274 210.907C437.721 211.013 434.668 211.147 431.294 211.42C427.641 211.692 424.011 212.227 420.434 213.02C418.598 213.452 416.811 214.071 415.101 214.867C413.528 215.654 412.054 216.622 410.708 217.753C408.041 219.827 406.041 222.127 404.194 223.933C402.79 225.4 401.224 226.704 399.528 227.82C399.059 228.115 398.571 228.378 398.068 228.607C397.899 228.7 397.72 228.774 397.534 228.827C397.534 228.787 398.248 228.467 399.434 227.68C401.086 226.523 402.613 225.196 403.988 223.72C405.781 221.9 407.781 219.56 410.468 217.447C411.83 216.287 413.328 215.295 414.928 214.493C416.663 213.676 418.48 213.044 420.348 212.607C423.948 211.808 427.602 211.28 431.281 211.027C434.668 210.78 437.721 210.653 440.281 210.6C442.841 210.547 444.948 210.54 446.354 210.553H448.008C448.193 210.557 448.378 210.578 448.561 210.613Z" fill="#263238"/>
<g opacity="0.5">
<path d="M405.733 258.713C405.849 258.629 405.969 258.552 406.093 258.48C406.443 258.25 406.779 258.001 407.1 257.733C408.311 256.675 409.254 255.346 409.853 253.853C410.776 251.477 411.108 248.913 410.82 246.38C410.474 243.023 409.804 239.708 408.82 236.48C407.669 232.559 406.057 228.789 404.02 225.247C401.672 221.184 398.675 217.534 395.147 214.44C391.262 211.007 386.692 208.439 381.74 206.907C376.397 205.348 370.797 204.869 365.267 205.5C359.731 206.087 354.314 207.496 349.193 209.68C344.592 211.493 340.428 214.265 336.98 217.811C333.532 221.357 330.878 225.596 329.193 230.247C327.746 234.069 326.705 238.033 326.087 242.073C325.793 243.927 325.573 245.7 325.42 247.407C325.241 248.984 325.174 250.573 325.22 252.16C325.313 255.12 326.28 257.653 327.793 259.1C328.897 260.28 330.392 261.019 332 261.18C332.56 261.194 333.119 261.143 333.667 261.027L333.253 261.147C332.84 261.237 332.417 261.278 331.993 261.267C330.354 261.135 328.819 260.407 327.68 259.22C326.113 257.753 325.093 255.167 325.013 252.173C324.955 250.574 325.011 248.972 325.18 247.38C325.32 245.693 325.533 243.913 325.813 242.047C326.416 237.98 327.449 233.989 328.893 230.14C329.713 228 330.703 225.929 331.853 223.947C333.092 221.85 334.549 219.89 336.2 218.1C339.819 214.305 344.199 211.317 349.053 209.333C354.209 207.124 359.668 205.701 365.247 205.113C370.842 204.467 376.51 204.952 381.913 206.54C386.921 208.095 391.539 210.699 395.46 214.18C399.012 217.307 402.025 220.996 404.38 225.1C408.076 231.653 410.36 238.906 411.087 246.393C411.338 248.951 410.965 251.532 410 253.913C409.375 255.419 408.396 256.753 407.147 257.8C406.717 258.164 406.242 258.471 405.733 258.713Z" fill="white"/>
</g>
<path d="M81.0475 241.5C80.7034 241.139 80.3806 240.758 80.0808 240.36C79.2052 239.335 78.2366 238.393 77.1875 237.547C73.6767 234.796 69.5645 232.916 65.1875 232.06C60.794 231.236 56.3167 230.95 51.8541 231.207C50.1408 231.267 48.7541 231.353 47.7941 231.4C47.2982 231.453 46.7988 231.466 46.3008 231.44C46.4236 231.399 46.5514 231.374 46.6808 231.367L47.7808 231.233C48.7341 231.133 50.1208 231.007 51.8408 230.907C56.3247 230.564 60.8343 230.81 65.2541 231.64C69.7052 232.505 73.8719 234.461 77.3808 237.333C78.4268 238.21 79.3745 239.199 80.2075 240.28C80.4465 240.569 80.6691 240.872 80.8741 241.187C80.9427 241.285 81.0008 241.39 81.0475 241.5Z" fill="#263238"/>
<path d="M80.8607 219.333C80.8607 219.453 73.7407 219.447 64.9607 219.333C56.1807 219.22 49.0674 219.007 49.0674 218.887C49.0674 218.767 56.1874 218.78 64.9674 218.887C73.7474 218.993 80.8674 219.18 80.8607 219.333Z" fill="#263238"/>
<g opacity="0.5">
<path d="M161.56 257.233C161.553 257.098 161.553 256.962 161.56 256.827C161.56 256.54 161.56 256.16 161.56 255.633C161.56 255.107 161.56 254.453 161.48 253.687C161.4 252.92 161.387 252.033 161.287 251.02C160.767 245.402 159.551 239.871 157.667 234.553C156.379 230.875 154.794 227.308 152.927 223.887C150.838 219.948 148.289 216.271 145.334 212.933C142.044 209.255 137.965 206.369 133.4 204.493C128.497 202.482 123.26 201.41 117.96 201.333C115.283 201.309 112.607 201.501 109.96 201.907C107.393 202.345 104.864 202.981 102.394 203.807C100.016 204.625 97.7083 205.635 95.4937 206.827L94.6803 207.26L93.8937 207.733L92.327 208.667L90.8537 209.687L90.1203 210.193L89.4537 210.747C85.9173 213.467 82.8385 216.735 80.3337 220.427C78.144 223.641 76.3699 227.12 75.0537 230.78C73.9736 233.806 73.1987 236.933 72.7403 240.113C72.587 241.52 72.4137 242.827 72.387 244.04C72.3603 245.253 72.327 246.36 72.3337 247.373C72.3403 248.387 72.4403 249.253 72.4737 250.04C72.507 250.827 72.6137 251.453 72.6803 251.973C72.747 252.493 72.787 252.873 72.827 253.16C72.867 253.447 72.827 253.567 72.827 253.567C72.827 253.567 72.827 253.433 72.747 253.167C72.667 252.9 72.6403 252.5 72.5603 251.987C72.4803 251.473 72.3603 250.82 72.3137 250.053C72.267 249.287 72.127 248.4 72.1337 247.387C72.1403 246.373 72.067 245.267 72.1337 244.053C72.2003 242.84 72.3137 241.513 72.4603 240.1C72.8925 236.902 73.652 233.756 74.727 230.713C76.0309 227.019 77.8007 223.506 79.9937 220.26C82.5105 216.528 85.6073 213.222 89.167 210.467L89.867 209.913L90.607 209.4L92.0937 208.36L93.6603 207.407L94.447 206.927L95.267 206.493C97.4964 205.283 99.8221 204.26 102.22 203.433C104.714 202.595 107.268 201.951 109.86 201.507C112.536 201.094 115.24 200.9 117.947 200.927C123.294 201.009 128.577 202.1 133.52 204.14C138.14 206.036 142.272 208.95 145.607 212.667C148.562 216.053 151.107 219.776 153.187 223.76C155.05 227.195 156.624 230.778 157.894 234.473C159.761 239.82 160.939 245.382 161.4 251.027C161.582 253.09 161.635 255.163 161.56 257.233Z" fill="white"/>
</g>
<path d="M394.754 184.807C394.77 184.951 394.77 185.096 394.754 185.24C394.714 185.573 394.661 185.98 394.594 186.48C394.447 187.553 394.227 189.107 394.087 191.033C393.885 193.284 393.988 195.551 394.394 197.773C394.918 200.485 396.223 202.985 398.147 204.967C400.098 206.921 402.431 208.453 405.001 209.467C407.093 210.289 409.258 210.914 411.467 211.333C413.367 211.713 414.921 211.947 415.987 212.12L417.221 212.327C417.366 212.344 417.509 212.378 417.647 212.427C417.502 212.451 417.353 212.451 417.207 212.427L415.967 212.3C414.887 212.173 413.301 211.987 411.414 211.633C409.161 211.249 406.952 210.639 404.821 209.813C402.186 208.801 399.794 207.245 397.801 205.247C395.837 203.205 394.516 200.632 394.001 197.847C393.608 195.59 393.532 193.291 393.774 191.013C393.961 189.073 394.227 187.52 394.441 186.453C394.541 185.92 394.627 185.507 394.687 185.227C394.691 185.084 394.713 184.943 394.754 184.807Z" fill="#263238"/>
<path d="M243.24 201.127C243.36 201.097 243.484 201.086 243.607 201.093C243.961 201.076 244.316 201.094 244.667 201.147C244.957 201.182 245.236 201.278 245.486 201.43C245.735 201.582 245.949 201.785 246.114 202.027C246.337 202.349 246.471 202.725 246.502 203.117C246.532 203.508 246.458 203.9 246.287 204.253C246.066 204.668 245.76 205.032 245.389 205.32C245.018 205.609 244.59 205.815 244.134 205.927C243.116 206.146 242.068 206.198 241.034 206.08L234.02 205.68C233.378 205.671 232.742 205.552 232.14 205.327C231.838 205.209 231.563 205.03 231.333 204.8C231.104 204.571 230.925 204.296 230.807 203.993C230.718 203.684 230.704 203.357 230.765 203.041C230.826 202.725 230.962 202.427 231.16 202.173C231.512 201.69 232.006 201.329 232.574 201.14C233.584 200.871 234.63 200.765 235.674 200.827C236.634 200.827 237.534 200.827 238.34 200.893L242.2 201.06C242.675 201.05 243.149 201.074 243.62 201.133C243.501 201.168 243.378 201.184 243.254 201.18C243.014 201.18 242.66 201.213 242.2 201.22C241.287 201.22 239.967 201.22 238.334 201.22C237.52 201.22 236.627 201.22 235.667 201.22C234.667 201.176 233.666 201.289 232.7 201.553C232.211 201.715 231.786 202.028 231.487 202.447C231.327 202.649 231.218 202.886 231.168 203.139C231.118 203.391 231.129 203.652 231.2 203.9C231.3 204.15 231.451 204.377 231.644 204.566C231.837 204.754 232.068 204.9 232.32 204.993C232.878 205.196 233.467 205.302 234.06 205.307L241.067 205.74C242.064 205.863 243.074 205.829 244.06 205.64C244.478 205.55 244.872 205.373 245.217 205.12C245.561 204.867 245.849 204.545 246.06 204.173C246.216 203.866 246.289 203.523 246.27 203.179C246.251 202.835 246.142 202.502 245.954 202.213C245.814 201.984 245.626 201.787 245.405 201.635C245.183 201.484 244.931 201.381 244.667 201.333C243.754 201.147 243.234 201.173 243.24 201.127Z" fill="#263238"/>
<path d="M337.554 200.347C337.675 200.328 337.799 200.328 337.92 200.347C338.274 200.329 338.63 200.347 338.98 200.4C339.27 200.436 339.549 200.533 339.798 200.685C340.047 200.837 340.262 201.04 340.427 201.28C340.651 201.602 340.785 201.979 340.815 202.37C340.846 202.761 340.771 203.153 340.6 203.507C340.38 203.922 340.074 204.285 339.703 204.574C339.331 204.862 338.904 205.069 338.447 205.18C337.425 205.401 336.373 205.453 335.334 205.333L328.32 204.933C327.679 204.924 327.043 204.806 326.44 204.587C326.138 204.469 325.863 204.29 325.633 204.06C325.404 203.831 325.225 203.556 325.107 203.253C325.014 202.945 324.996 202.618 325.057 202.301C325.117 201.984 325.253 201.686 325.454 201.433C325.808 200.952 326.301 200.591 326.867 200.4C327.878 200.134 328.924 200.029 329.967 200.087C330.927 200.087 331.827 200.12 332.634 200.153L336.5 200.32C336.972 200.318 337.444 200.343 337.914 200.393C337.795 200.428 337.671 200.444 337.547 200.44C337.307 200.44 336.954 200.473 336.494 200.487C335.58 200.487 334.26 200.487 332.627 200.487C331.814 200.487 330.92 200.487 329.96 200.487C328.96 200.443 327.959 200.556 326.994 200.82C326.503 200.982 326.077 201.297 325.78 201.72C325.62 201.921 325.511 202.157 325.461 202.409C325.411 202.66 325.422 202.92 325.494 203.167C325.593 203.417 325.745 203.644 325.938 203.832C326.131 204.021 326.361 204.166 326.614 204.26C327.172 204.462 327.76 204.57 328.354 204.58L335.36 205.007C336.357 205.133 337.368 205.099 338.354 204.907C338.77 204.816 339.164 204.64 339.508 204.389C339.853 204.137 340.141 203.816 340.354 203.447C340.507 203.138 340.578 202.794 340.559 202.449C340.54 202.105 340.433 201.771 340.247 201.48C340.104 201.257 339.917 201.067 339.697 200.921C339.476 200.775 339.228 200.677 338.967 200.633C338.067 200.367 337.547 200.393 337.554 200.347Z" fill="#263238"/>
<path d="M351.767 186.3C351.767 186.3 351.767 186.427 351.673 186.673C351.58 186.92 351.507 187.3 351.373 187.787L350.18 192.093C349.12 195.873 347.573 201.427 345.6 208.427V208.467H345.56C342.211 210.033 339.118 212.096 336.387 214.587C334.841 215.983 333.412 217.504 332.113 219.133C330.733 220.885 329.485 222.737 328.38 224.673C326.005 228.935 324.212 233.496 323.047 238.233C321.704 243.444 321.01 248.8 320.98 254.18V254.34H320.827H253.947L167.68 254.307H167.553V254.187C165.333 236.533 164 222 163.153 211.833C162.74 206.767 162.487 202.807 162.273 200.113C162.187 198.78 162.12 197.74 162.073 197.04C162.027 196.34 162 196 162 196C162 196 162.04 196.353 162.093 197.047C162.147 197.74 162.233 198.773 162.333 200.113C162.553 202.78 162.88 206.78 163.293 211.827C164.167 221.953 165.573 236.493 167.767 254.187L167.633 254.067H253.9H320.78L320.627 254.227C320.666 248.828 321.369 243.454 322.72 238.227C323.91 233.466 325.731 228.886 328.133 224.607C329.247 222.659 330.506 220.798 331.9 219.04C333.21 217.406 334.65 215.881 336.207 214.48C338.963 211.986 342.08 209.922 345.453 208.36L345.4 208.42L350.067 192.113C350.607 190.24 351.02 188.78 351.307 187.813C351.447 187.333 351.553 186.967 351.633 186.713C351.713 186.46 351.767 186.3 351.767 186.3Z" fill="#263238"/>
<path d="M255.627 189.68C255.633 189.735 255.633 189.791 255.627 189.847C255.627 189.973 255.594 190.133 255.574 190.333C255.52 190.787 255.44 191.413 255.34 192.2C255.24 192.987 255.107 194.007 254.987 195.16C254.867 196.313 254.7 197.627 254.58 199.087C254.46 200.547 254.307 202.133 254.207 203.847C254.107 205.56 254.007 207.4 253.914 209.327C253.787 213.187 253.754 217.44 253.914 221.893C254.074 226.347 254.394 230.593 254.787 234.433C255 236.353 255.194 238.18 255.454 239.88C255.714 241.58 255.92 243.167 256.154 244.613C256.387 246.06 256.627 247.353 256.82 248.5C257.014 249.647 257.207 250.627 257.374 251.427C257.54 252.227 257.64 252.827 257.727 253.273L257.814 253.76C257.823 253.815 257.823 253.872 257.814 253.927C257.787 253.877 257.769 253.823 257.76 253.767C257.725 253.642 257.685 253.482 257.64 253.287C257.54 252.84 257.4 252.227 257.22 251.453C257.04 250.68 256.82 249.68 256.607 248.533C256.394 247.387 256.114 246.1 255.887 244.653C255.66 243.207 255.374 241.627 255.147 239.92C254.92 238.213 254.68 236.393 254.48 234.467C254.074 230.62 253.74 226.373 253.58 221.907C253.42 217.44 253.487 213.187 253.627 209.313C253.727 207.38 253.807 205.547 253.954 203.827C254.1 202.107 254.22 200.493 254.374 199.06C254.527 197.627 254.687 196.293 254.827 195.14C254.967 193.987 255.114 192.993 255.24 192.187C255.367 191.38 255.467 190.773 255.54 190.327L255.627 189.84C255.619 189.787 255.619 189.733 255.627 189.68Z" fill="#263238"/>
<path d="M162.807 187.78C160.674 189.38 157.474 189.78 154.874 189.24C152.274 188.7 150.207 187.493 148.874 185.18L154.741 184.92L162.807 187.78Z" fill="#263238"/>
<path d="M154.728 184.92C154.728 184.92 160.648 188.527 162.368 188.033C164.088 187.54 191.701 165.727 208.334 157.307C206.705 156.703 205.004 156.317 203.274 156.16C203.274 156.16 195.528 160.08 185.861 165.893C178.528 170.32 171.028 174.96 167.528 177.093L154.728 184.92Z" fill="#455A64"/>
<path d="M173.66 189.547L173.467 189.667L172.887 190.007L170.62 191.293L162.073 196.087C156.74 195.893 149.84 195.753 141.953 196.087C138.013 196.26 133.827 196.54 129.467 196.987C125.107 197.433 120.567 198.053 115.92 198.793C107.78 200.06 100.107 201.667 93.0801 202.953C86.8539 204.087 80.5645 204.842 74.2468 205.213C68.8534 205.52 64.4734 205.44 61.4601 205.353C59.9468 205.307 58.7934 205.247 57.9868 205.2L57.0801 205.14C56.978 205.145 56.8756 205.145 56.7734 205.14C56.7734 205.14 56.8801 205.14 57.0868 205.14H57.9868C58.7801 205.14 59.9868 205.207 61.4601 205.233C64.4801 205.28 68.8468 205.32 74.2334 204.98C80.5158 204.579 86.769 203.806 92.9601 202.667C99.9734 201.333 107.66 199.747 115.807 198.473C120.473 197.733 125 197.14 129.373 196.673C133.747 196.207 137.94 195.96 141.887 195.807C149.78 195.5 156.667 195.68 162.027 195.907H161.967L170.567 191.24L172.86 190L173.453 189.687C173.515 189.631 173.585 189.584 173.66 189.547Z" fill="#263238"/>
<path d="M179.947 190.233C221.867 188.36 306.427 186.8 348.347 184.9C348.347 184.9 349.727 180.293 345.781 177.413C344.347 176.367 335.641 169.78 325.474 165.907C313.006 161.253 299.994 158.213 286.754 156.86C279.287 156.253 265.627 155.7 265.627 155.7C265.627 155.7 240.621 156.7 233.627 157.327C224.833 158.057 216.246 160.394 208.294 164.22C199.594 168.58 184.387 181.333 184.387 181.333L173.721 190.253L179.947 190.233Z" fill="#455A64"/>
<path d="M257.093 154.493L249 189.087L263.673 188.62L266.587 154.493H257.093Z" fill="#263238"/>
<path d="M320.514 162.867L319.094 186.3H321.127L322.507 163.6L320.514 162.867Z" fill="#263238"/>
<path d="M181.534 182.3C182.2 183.16 185.9 191.533 185.9 191.533L171.74 190.607L181.534 182.3Z" fill="#263238"/>
<path d="M194.814 190.7L184.001 191C182.581 191 181.461 188.453 181.507 185.353C181.547 182.58 182.507 180.24 183.774 179.833L194.021 176.587L194.814 190.7Z" fill="#4275F4"/>
<path d="M261.687 154.1C261.781 154.1 260.634 161.993 259.134 171.707C257.634 181.42 256.327 189.28 256.234 189.26C256.141 189.24 257.281 181.367 258.787 171.653C260.294 161.94 261.587 154.08 261.687 154.1Z" fill="#455A64"/>
<path d="M181.954 181.787C181.59 183.052 181.033 184.253 180.301 185.347C179.667 186.501 178.855 187.547 177.894 188.447C177.814 188.38 178.894 187.007 180.007 185.167C181.121 183.327 181.86 181.747 181.954 181.787Z" fill="#455A64"/>
<path d="M241.787 160.787C241.745 160.886 241.691 160.98 241.627 161.067L241.127 161.847C240.654 162.567 240.014 163.527 239.241 164.687C237.634 167.08 235.427 170.387 233.021 174.067C230.614 177.747 228.474 181.093 226.927 183.52L225.081 186.387C224.881 186.7 224.707 186.953 224.567 187.16C224.514 187.254 224.449 187.342 224.374 187.42C224.374 187.42 224.407 187.313 224.507 187.127L224.967 186.32C225.374 185.62 225.967 184.62 226.714 183.393C228.214 180.927 230.327 177.553 232.714 173.873C235.101 170.193 237.381 166.907 239.014 164.54C239.841 163.367 240.521 162.413 241.014 161.767C241.241 161.473 241.421 161.227 241.574 161.02C241.727 160.813 241.774 160.78 241.787 160.787Z" fill="#EBEBEB"/>
<path d="M235.634 166C234.63 167.703 233.528 169.345 232.334 170.92C231.237 172.564 230.041 174.14 228.754 175.64C229.758 173.938 230.86 172.295 232.054 170.72C233.153 169.077 234.348 167.501 235.634 166Z" fill="#EBEBEB"/>
<path d="M448.434 208.767C448.434 208.767 444.954 208.987 442.327 207.86C441.331 207.44 440.429 206.824 439.676 206.048C438.923 205.272 438.334 204.352 437.944 203.344C437.554 202.335 437.371 201.259 437.406 200.178C437.441 199.097 437.693 198.034 438.147 197.053L438.187 196.973C438.789 195.723 439.725 194.663 440.89 193.91C442.056 193.158 443.407 192.741 444.794 192.707H446.247C446.786 193.789 447.108 194.967 447.194 196.173C447.587 199.333 448.181 204.18 448.434 208.767Z" fill="#F5F5F5"/>
<path d="M294.441 161.907C294.521 161.96 291.321 167.14 287.294 173.48C283.267 179.82 279.961 184.913 279.854 184.86C279.747 184.807 282.967 179.633 287.001 173.293C291.034 166.953 294.361 161.853 294.441 161.907Z" fill="#EBEBEB"/>
<path d="M293.334 168.447C292.639 169.838 291.841 171.175 290.947 172.447C290.155 173.789 289.264 175.071 288.28 176.28C288.979 174.89 289.779 173.553 290.674 172.28C291.464 170.938 292.353 169.657 293.334 168.447Z" fill="#EBEBEB"/>
<path d="M192.34 178.593C189.706 179.84 186.891 180.662 184 181.027C184 180.927 185.867 180.48 188.16 179.807C190.453 179.133 192.307 178.5 192.34 178.593Z" fill="#EBEBEB"/>
<path d="M250.374 193.24C250.374 193.34 232.781 193.413 211.087 193.413C189.394 193.413 171.794 193.34 171.794 193.24C171.794 193.14 189.381 193.067 211.087 193.067C232.794 193.067 250.374 193.147 250.374 193.24Z" fill="#EBEBEB"/>
<path d="M244.601 200.227C242.704 200.402 240.798 200.46 238.894 200.4C236.988 200.46 235.08 200.402 233.181 200.227C235.08 200.055 236.988 199.997 238.894 200.053C240.798 199.997 242.704 200.055 244.601 200.227Z" fill="#EBEBEB"/>
<path d="M116.854 208.147C116.708 208.161 116.56 208.161 116.414 208.147C116.127 208.147 115.707 208.147 115.167 208.147C113.643 208.147 112.12 208.241 110.607 208.427C105.6 209.023 100.78 210.691 96.476 213.319C92.172 215.947 88.4853 219.472 85.6672 223.653C84.8099 224.913 84.0306 226.225 83.3339 227.58C83.0739 228.06 82.9072 228.44 82.7739 228.693C82.7193 228.829 82.6476 228.956 82.5605 229.073C82.6002 228.934 82.6515 228.798 82.7139 228.667C82.8272 228.407 82.9739 228 83.2139 227.52C83.866 226.135 84.6168 224.798 85.4606 223.52C88.2478 219.261 91.948 215.675 96.2928 213.023C100.638 210.371 105.518 208.719 110.581 208.187C112.105 208.016 113.641 207.958 115.174 208.013C115.714 208.013 116.134 208.073 116.421 208.093C116.567 208.093 116.712 208.111 116.854 208.147Z" fill="#EBEBEB"/>
<path d="M317.801 191.393C317.801 191.487 306.154 191.567 291.801 191.567C277.447 191.567 265.801 191.487 265.801 191.393C265.801 191.3 277.441 191.22 291.801 191.22C306.161 191.22 317.801 191.293 317.801 191.393Z" fill="#EBEBEB"/>
<path d="M340.614 199.207C339.989 199.26 339.36 199.26 338.734 199.207C337.574 199.207 335.974 199.147 334.207 199.133C332.441 199.12 330.841 199.133 329.681 199.133C329.054 199.178 328.425 199.166 327.801 199.1C328.417 198.967 329.044 198.896 329.674 198.887C330.834 198.813 332.434 198.753 334.207 198.76C335.981 198.767 337.587 198.847 338.747 198.94C339.377 198.964 340.003 199.053 340.614 199.207Z" fill="#EBEBEB"/>
<path d="M382.826 138.78C381.589 138.78 380.402 138.288 379.527 137.413C378.651 136.538 378.16 135.351 378.16 134.113V128.78C378.16 128.78 374.326 128.18 374.28 124.347C374.233 120.513 374.9 111.68 374.9 111.68C377.08 110.744 379.471 110.407 381.826 110.703C384.18 111 386.413 111.919 388.293 113.367L387.386 134.447C387.313 135.611 386.802 136.704 385.956 137.508C385.111 138.311 383.993 138.766 382.826 138.78Z" fill="#B78876"/>
<path d="M378.214 128.747C379.985 128.777 381.725 128.28 383.214 127.32C383.214 127.32 382.027 130.087 378.2 129.74L378.214 128.747Z" fill="#AA6550"/>
<path d="M387.92 117.813C387.987 117.813 390.587 117.04 390.473 119.66C390.36 122.28 387.773 121.66 387.773 121.58C387.773 121.5 387.92 117.813 387.92 117.813Z" fill="#B78876"/>
<path d="M388.607 120.613C388.607 120.613 388.647 120.647 388.727 120.687C388.781 120.709 388.838 120.721 388.897 120.721C388.955 120.721 389.013 120.709 389.067 120.687C389.24 120.586 389.382 120.441 389.48 120.266C389.577 120.091 389.626 119.893 389.62 119.693C389.635 119.466 389.599 119.238 389.513 119.027C389.492 118.944 389.45 118.868 389.392 118.805C389.334 118.742 389.261 118.695 389.18 118.667C389.129 118.65 389.073 118.652 389.022 118.673C388.972 118.693 388.931 118.731 388.907 118.78C388.873 118.853 388.907 118.907 388.873 118.913C388.84 118.92 388.82 118.867 388.873 118.76C388.891 118.695 388.931 118.638 388.987 118.6C389.022 118.573 389.063 118.553 389.107 118.543C389.151 118.533 389.196 118.532 389.24 118.54C389.345 118.567 389.442 118.62 389.522 118.693C389.602 118.766 389.663 118.858 389.7 118.96C389.806 119.189 389.854 119.441 389.84 119.693C389.847 119.928 389.784 120.16 389.658 120.359C389.532 120.557 389.349 120.713 389.133 120.807C389.063 120.823 388.989 120.825 388.918 120.811C388.847 120.797 388.779 120.768 388.72 120.727C388.607 120.667 388.593 120.62 388.607 120.613Z" fill="#AA6550"/>
<path d="M376.34 117.667C376.34 117.81 376.395 117.948 376.495 118.051C376.594 118.154 376.73 118.215 376.873 118.22C376.943 118.225 377.012 118.217 377.078 118.195C377.144 118.173 377.205 118.138 377.258 118.092C377.31 118.046 377.352 117.99 377.382 117.927C377.413 117.864 377.43 117.796 377.433 117.727C377.435 117.656 377.423 117.585 377.397 117.519C377.372 117.453 377.333 117.392 377.285 117.341C377.236 117.289 377.177 117.248 377.112 117.219C377.047 117.191 376.977 117.175 376.906 117.173C376.837 117.168 376.767 117.176 376.7 117.198C376.634 117.22 376.572 117.255 376.52 117.301C376.467 117.347 376.424 117.403 376.393 117.466C376.362 117.529 376.344 117.597 376.34 117.667Z" fill="#263238"/>
<path d="M375.673 117.12C375.747 117.187 376.16 116.88 376.747 116.887C377.333 116.893 377.773 117.18 377.833 117.107C377.893 117.033 377.793 116.947 377.607 116.807C377.351 116.632 377.049 116.539 376.74 116.54C376.433 116.541 376.134 116.639 375.887 116.82C375.707 116.96 375.64 117.087 375.673 117.12Z" fill="#263238"/>
<path d="M382.113 117.667C382.113 117.81 382.169 117.948 382.268 118.051C382.368 118.154 382.503 118.215 382.647 118.22C382.716 118.225 382.786 118.217 382.852 118.195C382.918 118.173 382.979 118.138 383.031 118.092C383.083 118.046 383.126 117.99 383.156 117.927C383.186 117.864 383.203 117.796 383.207 117.727C383.208 117.656 383.196 117.585 383.171 117.519C383.145 117.453 383.107 117.392 383.058 117.341C383.009 117.289 382.95 117.248 382.886 117.219C382.821 117.191 382.751 117.175 382.68 117.173C382.61 117.168 382.54 117.176 382.474 117.198C382.407 117.22 382.346 117.255 382.293 117.301C382.24 117.347 382.197 117.403 382.166 117.466C382.136 117.529 382.117 117.597 382.113 117.667Z" fill="#263238"/>
<path d="M381.474 117.227C381.54 117.3 381.954 116.993 382.547 116.993C383.14 116.993 383.567 117.293 383.627 117.22C383.687 117.147 383.594 117.06 383.4 116.92C383.147 116.742 382.843 116.648 382.534 116.653C382.227 116.65 381.928 116.746 381.68 116.927C381.5 117.067 381.44 117.193 381.474 117.227Z" fill="#263238"/>
<path d="M379.333 121.6C379.022 121.502 378.699 121.443 378.373 121.427C378.227 121.427 378.08 121.38 378.053 121.28C378.041 121.124 378.076 120.969 378.153 120.833C378.3 120.467 378.447 120.087 378.6 119.687C379.015 118.716 379.349 117.712 379.6 116.687C379.111 117.624 378.696 118.598 378.36 119.6C378.213 120 378.073 120.387 377.933 120.753C377.84 120.934 377.814 121.142 377.86 121.34C377.88 121.394 377.913 121.442 377.956 121.481C377.999 121.519 378.051 121.546 378.107 121.56C378.189 121.585 378.274 121.598 378.36 121.6C378.683 121.642 379.01 121.642 379.333 121.6Z" fill="#263238"/>
<path d="M381.066 122C380.973 122 380.966 122.667 380.4 123.087C379.833 123.507 379.173 123.473 379.166 123.56C379.16 123.647 379.32 123.687 379.606 123.693C379.992 123.706 380.368 123.578 380.666 123.333C380.943 123.107 381.122 122.782 381.166 122.427C381.18 122.16 381.113 122 381.066 122Z" fill="#263238"/>
<path d="M381.333 114.92C381.393 115.08 382 115 382.667 115.087C383.333 115.173 383.913 115.36 384 115.213C384.087 115.067 383.947 114.993 383.72 114.84C383.42 114.645 383.077 114.526 382.72 114.493C382.367 114.451 382.008 114.492 381.673 114.613C381.42 114.713 381.293 114.84 381.333 114.92Z" fill="#263238"/>
<path d="M375.893 115.413C375.993 115.547 376.4 115.413 376.893 115.413C377.387 115.413 377.793 115.507 377.887 115.367C377.98 115.227 377.887 115.16 377.687 115.033C377.443 114.881 377.159 114.805 376.872 114.814C376.584 114.824 376.306 114.918 376.073 115.087C375.907 115.207 375.847 115.333 375.893 115.413Z" fill="#263238"/>
<path d="M373.08 109.333C373.054 109.095 373.089 108.854 373.181 108.633C373.273 108.411 373.419 108.217 373.606 108.067C373.802 107.916 374.046 107.843 374.292 107.861C374.538 107.88 374.769 107.988 374.94 108.167C374.904 108.006 374.902 107.84 374.935 107.679C374.967 107.518 375.033 107.365 375.127 107.231C375.222 107.096 375.344 106.983 375.485 106.899C375.626 106.814 375.783 106.76 375.946 106.74C376.573 106.707 377.106 107.173 377.713 107.34C378.315 107.472 378.943 107.399 379.5 107.133C380.066 106.907 380.6 106.593 381.173 106.38C382.387 105.937 383.727 105.991 384.902 106.53C386.076 107.07 386.991 108.05 387.446 109.26C387.875 109.156 388.325 109.184 388.738 109.34C389.15 109.495 389.506 109.772 389.76 110.133C390.245 110.878 390.439 111.775 390.306 112.653C390.223 113.241 390.075 113.818 389.866 114.373C389.866 114.427 389.866 114.473 389.866 114.52C389.826 116.633 389.586 119.107 388.686 119.12C387.12 119.12 387.493 116.193 387.493 116.193C385.566 115.447 386.286 112.56 385.8 112.127C385.313 111.693 384.313 110.673 380.286 112.733C378.785 113.405 377.109 113.585 375.5 113.247H375.4C375.035 113.157 374.686 113.011 374.366 112.813C373.989 112.596 373.69 112.265 373.513 111.867C373.429 111.666 373.405 111.445 373.444 111.231C373.483 111.017 373.584 110.818 373.733 110.66C373.382 110.297 373.154 109.833 373.08 109.333Z" fill="#263238"/>
<path d="M420.5 135.233C420.406 135.393 419.313 137.453 419.313 137.453C419.313 137.453 420.18 134.087 420.213 133.967C420.493 132.867 419.813 132.98 419.613 133.373C419.413 133.767 418.18 137.087 418.18 137.087C419.333 132.767 418.973 132.38 418.646 132.313C418.32 132.247 417.313 136.2 417.313 136.2C417.048 135.75 416.692 135.362 416.266 135.06C415.22 134.34 413.48 135.06 413.4 135.553C413.32 136.047 413.933 136.18 413.933 136.18C414.178 135.994 414.472 135.885 414.779 135.865C415.086 135.844 415.392 135.915 415.659 136.066C415.927 136.218 416.144 136.445 416.284 136.719C416.423 136.992 416.48 137.301 416.446 137.607C416.424 137.832 416.324 138.043 416.164 138.203C416.003 138.364 415.792 138.463 415.566 138.485C415.341 138.507 415.114 138.45 414.926 138.324C414.737 138.198 414.599 138.01 414.533 137.793C414.1 135.847 413.433 136.46 413.433 136.46L414.1 140.76L413.393 142.92L409.5 153.473L402.06 145.727C402.06 145.727 398.06 154.52 397.993 154.813C397.926 155.107 401.72 158.96 404.213 161.527C405.096 162.432 406.206 163.082 407.427 163.41C408.648 163.738 409.935 163.732 411.152 163.39C412.369 163.049 413.472 162.387 414.345 161.472C415.218 160.558 415.829 159.425 416.113 158.193L419.053 143.04L420.433 138.073C420.433 138.073 420.926 136.073 421.046 135.587C421.2 135.007 420.76 134.813 420.5 135.233Z" fill="#B78876"/>
<path d="M354.407 164.84C356.627 165.233 359.173 163.633 360.54 161.84L366.08 154.54L359.567 148.733L353.733 156L331.827 154.84L326.667 151.96C326.312 151.761 325.902 151.686 325.5 151.747L318.38 153.747L325.047 155.8L336.707 160.187L354.407 164.84Z" fill="#B78876"/>
<path d="M404.06 272.207L404.98 276.067C404.98 276.067 411.286 284.253 413.233 283.853C414.506 283.593 412.94 281.453 410.566 275.233L410.066 272.667L404.06 272.207Z" fill="#4275F4"/>
<path d="M413.486 282.667C413.476 282.707 413.46 282.745 413.439 282.78C413.375 282.885 413.283 282.971 413.173 283.027C413.001 283.119 412.807 283.163 412.613 283.153C412.356 283.128 412.11 283.036 411.899 282.887C410.769 281.979 409.706 280.99 408.719 279.927C407.721 278.878 406.779 277.777 405.899 276.627C405.566 276.18 405.299 275.82 405.126 275.56C405.053 275.46 404.986 275.36 404.926 275.267C404.902 275.233 404.879 275.197 404.859 275.16C404.859 275.16 404.893 275.16 404.946 275.253L405.166 275.533L405.973 276.573C406.639 277.44 407.639 278.62 408.806 279.84C409.79 280.895 410.839 281.888 411.946 282.813C412.112 282.951 412.312 283.04 412.525 283.07C412.738 283.101 412.955 283.072 413.153 282.987C413.292 282.914 413.408 282.803 413.486 282.667Z" fill="#263238"/>
<path d="M412.593 280C412.593 280 412.393 280 412.087 280C411.683 280.062 411.297 280.207 410.953 280.427C410.598 280.63 410.304 280.925 410.1 281.28C409.947 281.553 409.907 281.747 409.887 281.747C409.889 281.569 409.935 281.396 410.02 281.24C410.214 280.856 410.515 280.537 410.887 280.32C411.245 280.093 411.651 279.954 412.073 279.913C412.251 279.891 412.432 279.921 412.593 280Z" fill="#263238"/>
<path d="M406.626 278.087C406.626 278.087 406.693 277.813 406.739 277.367C406.802 276.786 406.693 276.2 406.426 275.68C406.162 275.157 405.74 274.73 405.219 274.46C405.005 274.359 404.782 274.276 404.553 274.213C404.619 274.203 404.686 274.203 404.753 274.213C404.934 274.244 405.111 274.298 405.279 274.373C405.831 274.632 406.28 275.069 406.553 275.613C406.837 276.153 406.939 276.77 406.846 277.373C406.82 277.552 406.777 277.729 406.719 277.9C406.666 278 406.666 278.093 406.626 278.087Z" fill="#263238"/>
<path d="M404.467 272.86C404.645 273.244 404.762 273.653 404.814 274.073C404.927 274.74 405.054 275.293 405.027 275.307C404.85 274.923 404.737 274.513 404.694 274.093C404.574 273.413 404.434 272.873 404.467 272.86Z" fill="#263238"/>
<path d="M410.667 275.78C410.667 275.813 410.307 275.78 409.887 275.9C409.467 276.02 409.147 276.167 409.127 276.133C409.33 275.948 409.582 275.825 409.854 275.78C410.119 275.7 410.402 275.7 410.667 275.78Z" fill="#263238"/>
<path d="M410.78 276.44C410.78 276.44 410.48 276.44 410.113 276.527C409.746 276.613 409.513 276.773 409.486 276.74C409.642 276.563 409.854 276.446 410.086 276.407C410.313 276.33 410.561 276.342 410.78 276.44Z" fill="#263238"/>
<path d="M411.286 277.267C411.065 277.244 410.841 277.244 410.62 277.267C410.405 277.34 410.195 277.429 409.993 277.533C410.058 277.428 410.146 277.339 410.25 277.273C410.353 277.206 410.471 277.163 410.593 277.147C410.71 277.113 410.833 277.107 410.953 277.128C411.073 277.149 411.187 277.196 411.286 277.267Z" fill="#263238"/>
<path d="M410.22 275.5C410.149 275.509 410.077 275.509 410.006 275.5C409.817 275.461 409.629 275.41 409.446 275.347C409.176 275.251 408.913 275.135 408.66 275C408.512 274.918 408.369 274.827 408.233 274.727C408.147 274.676 408.074 274.606 408.018 274.523C407.963 274.44 407.927 274.346 407.913 274.247C407.92 274.193 407.939 274.141 407.968 274.096C407.998 274.05 408.036 274.011 408.082 273.982C408.128 273.953 408.179 273.934 408.233 273.927C408.287 273.92 408.341 273.924 408.393 273.94C408.565 273.997 408.717 274.101 408.833 274.24C409.04 274.436 409.233 274.646 409.413 274.867C409.566 275.06 409.686 275.22 409.76 275.333C409.803 275.388 409.839 275.449 409.866 275.513C409.866 275.513 409.673 275.287 409.346 274.927C409.186 274.747 408.986 274.54 408.753 274.32C408.65 274.2 408.516 274.111 408.366 274.06C408.226 274.027 408.04 274.1 408.04 274.253C408.04 274.407 408.173 274.533 408.3 274.633C408.426 274.733 408.58 274.82 408.72 274.9C408.964 275.04 409.218 275.163 409.48 275.267C409.926 275.42 410.22 275.48 410.22 275.5Z" fill="#263238"/>
<path d="M409.887 275.42C409.875 275.356 409.875 275.291 409.887 275.227C409.887 275.107 409.887 274.927 409.927 274.707C409.956 274.443 410.024 274.185 410.127 273.94C410.188 273.795 410.271 273.66 410.373 273.54C410.425 273.458 410.505 273.397 410.598 273.368C410.69 273.339 410.79 273.343 410.88 273.38C410.953 273.438 411.009 273.516 411.039 273.605C411.07 273.693 411.075 273.789 411.053 273.88C411.027 274.037 410.98 274.189 410.913 274.333C410.806 274.581 410.654 274.806 410.467 275C410.342 275.127 410.206 275.243 410.06 275.347C409.96 275.413 409.9 275.447 409.893 275.44C409.887 275.433 410.107 275.267 410.4 274.94C410.571 274.754 410.708 274.54 410.807 274.307C410.867 274.173 410.909 274.032 410.933 273.887C410.933 273.747 410.933 273.567 410.82 273.507C410.707 273.447 410.56 273.507 410.46 273.64C410.368 273.752 410.289 273.875 410.227 274.007C410.124 274.241 410.053 274.487 410.013 274.74C409.983 274.969 409.941 275.196 409.887 275.42Z" fill="#263238"/>
<g opacity="0.4">
<path d="M404.98 276.067L404.533 274.213C404.533 274.213 406.08 274.5 406.48 275.653C406.719 276.292 406.823 276.973 406.787 277.653L410.12 281.273C410.12 281.273 410.967 279.627 412.493 280.02C412.493 280.02 413.693 282.687 413.653 283.32C413.613 283.953 412.847 283.907 412.573 283.78C411.464 283.135 410.451 282.336 409.567 281.407C407.807 279.54 405.84 277.2 404.98 276.067Z" fill="black"/>
</g>
<path d="M372.713 274.16L372.679 269.013L382.313 268.9L382.439 276.42L381.839 276.467C379.173 276.647 368.319 277.193 366.506 276.673C364.553 276.1 372.713 274.16 372.713 274.16Z" fill="#4275F4"/>
<g opacity="0.4">
<path d="M378.946 276.387C379.077 275.573 379.505 274.837 380.146 274.32C380.776 273.801 381.579 273.542 382.393 273.593V276.26L378.946 276.387Z" fill="black"/>
</g>
<g opacity="0.4">
<path d="M368.727 275.247C368.727 275.247 365.867 276.113 366.234 276.58C366.6 277.047 377.567 276.907 382.44 276.42V276.207L369.614 276.48C369.614 276.48 369.287 275.267 368.727 275.247Z" fill="black"/>
</g>
<path d="M382.573 276.2H382.407L381.933 276.233L380.18 276.333C378.7 276.4 376.66 276.473 374.4 276.507C372.14 276.54 370.1 276.507 368.62 276.507L366.867 276.453H366.393H366.227H366.893H368.647C370.127 276.453 372.167 276.453 374.427 276.453C376.687 276.453 378.727 276.367 380.207 276.313L381.953 276.253H382.433L382.573 276.2Z" fill="#263238"/>
<path d="M369.6 276.627C369.514 276.339 369.4 276.06 369.26 275.793C369.083 275.549 368.88 275.326 368.653 275.127C368.944 275.25 369.191 275.459 369.36 275.726C369.529 275.992 369.613 276.304 369.6 276.62V276.627Z" fill="#263238"/>
<path d="M372.42 275.147C372.42 275.147 372.253 275.007 372.113 274.787C371.973 274.567 371.873 274.373 371.9 274.353C371.926 274.333 372.067 274.5 372.213 274.72C372.36 274.94 372.447 275.133 372.42 275.147Z" fill="#263238"/>
<path d="M373.193 274.727C373.193 274.727 373.02 274.653 372.853 274.507C372.686 274.36 372.566 274.22 372.586 274.193C372.606 274.167 372.76 274.273 372.933 274.42C373.106 274.567 373.219 274.7 373.193 274.727Z" fill="#263238"/>
<path d="M373.68 273.813C373.518 273.873 373.345 273.895 373.173 273.88C373.005 273.903 372.834 273.887 372.673 273.833C372.833 273.778 373.003 273.755 373.173 273.767C373.343 273.744 373.516 273.76 373.68 273.813Z" fill="#263238"/>
<path d="M373.84 273.167C373.677 273.283 373.481 273.343 373.28 273.34C373.084 273.376 372.881 273.351 372.7 273.267C372.888 273.237 373.077 273.221 373.267 273.22C373.457 273.191 373.648 273.173 373.84 273.167Z" fill="#263238"/>
<path d="M372.086 274.313C371.881 274.35 371.671 274.35 371.466 274.313C371.24 274.288 371.017 274.241 370.8 274.173C370.668 274.139 370.54 274.09 370.42 274.027C370.343 273.986 370.286 273.916 370.26 273.833C370.249 273.788 370.253 273.74 370.269 273.696C370.286 273.652 370.315 273.614 370.353 273.587C370.587 273.466 370.856 273.432 371.113 273.489C371.37 273.546 371.599 273.692 371.76 273.9C371.857 274.019 371.928 274.158 371.966 274.307C371.98 274.361 371.98 274.419 371.966 274.473C371.9 274.286 371.803 274.11 371.68 273.953C371.538 273.792 371.353 273.674 371.146 273.613C370.901 273.536 370.636 273.558 370.406 273.673C370.313 273.747 370.346 273.867 370.46 273.927C370.569 273.989 370.685 274.038 370.806 274.073C371.024 274.141 371.247 274.192 371.473 274.227C371.846 274.3 372.086 274.293 372.086 274.313Z" fill="#263238"/>
<path d="M371.926 274.347C371.885 274.284 371.857 274.215 371.844 274.141C371.83 274.068 371.831 273.993 371.846 273.92C371.863 273.755 371.92 273.597 372.013 273.46C372.063 273.368 372.136 273.291 372.225 273.235C372.314 273.179 372.415 273.146 372.52 273.14C372.551 273.146 372.582 273.157 372.609 273.175C372.636 273.193 372.659 273.215 372.677 273.242C372.695 273.269 372.708 273.299 372.714 273.331C372.72 273.363 372.72 273.395 372.713 273.427C372.703 273.525 372.669 273.619 372.613 273.7C372.536 273.84 372.439 273.968 372.326 274.08C372.133 274.273 371.98 274.347 371.973 274.333C371.966 274.32 372.1 274.22 372.266 274.027C372.361 273.91 372.446 273.785 372.52 273.653C372.606 273.52 372.66 273.28 372.52 273.253C372.38 273.227 372.213 273.4 372.119 273.527C372.034 273.646 371.975 273.782 371.946 273.927C371.927 274.066 371.92 274.206 371.926 274.347Z" fill="#263238"/>
<path d="M382.339 273.567C382.102 273.554 381.864 273.554 381.626 273.567C381.061 273.644 380.529 273.874 380.086 274.233C379.646 274.595 379.315 275.073 379.133 275.613C378.993 276.033 378.979 276.28 378.959 276.28C378.948 276.216 378.948 276.151 378.959 276.087C378.978 275.911 379.011 275.737 379.059 275.567C379.224 274.998 379.557 274.492 380.016 274.117C380.474 273.742 381.036 273.515 381.626 273.467C381.803 273.446 381.982 273.446 382.159 273.467C382.226 273.488 382.287 273.522 382.339 273.567Z" fill="#263238"/>
<path d="M381.293 269.567C381.369 270.231 381.404 270.898 381.4 271.567C381.439 272.233 381.439 272.901 381.4 273.567C381.324 272.903 381.286 272.235 381.286 271.567C381.247 270.901 381.25 270.233 381.293 269.567Z" fill="#263238"/>
<path d="M377.72 275.467C377.259 275.577 376.786 275.629 376.313 275.62C375.842 275.652 375.369 275.621 374.906 275.527C374.906 275.493 375.54 275.527 376.313 275.527C377.086 275.527 377.713 275.433 377.72 275.467Z" fill="#263238"/>
<path d="M379.607 275.44C379.607 275.44 379.56 275.573 379.494 275.713C379.427 275.853 379.4 275.987 379.367 275.987C379.334 275.987 379.314 275.833 379.367 275.667C379.42 275.5 379.587 275.413 379.607 275.44Z" fill="#263238"/>
<path d="M380.307 274.54C380.307 274.54 380.273 274.667 380.173 274.767C380.073 274.867 379.973 274.933 379.953 274.913C379.933 274.893 379.987 274.787 380.087 274.687C380.187 274.587 380.287 274.52 380.307 274.54Z" fill="#263238"/>
<path d="M381.333 274.127C381.333 274.16 381.2 274.16 381.06 274.213C380.92 274.267 380.82 274.34 380.793 274.313C380.766 274.287 380.846 274.16 381.02 274.1C381.193 274.04 381.333 274.093 381.333 274.127Z" fill="#263238"/>
<path d="M382.039 273.927C382.039 273.927 382 274.007 381.92 274.04C381.84 274.073 381.766 274.073 381.753 274.04C381.74 274.007 381.8 273.96 381.88 273.927C381.96 273.893 382.033 273.893 382.039 273.927Z" fill="#263238"/>
<path d="M414.293 272.893L395.247 172.027L368.773 176.06L370.653 271.94L385.653 272.253L383.16 188.607L400.033 272.893H414.293Z" fill="#455A64"/>
<path d="M398.173 181.673L367.913 180.547L368.773 152.927L364.806 157.453L356.713 150.447L365.613 138.32C366.757 136.774 368.2 135.473 369.856 134.494C371.512 133.515 373.347 132.878 375.253 132.62C376.38 132.467 377.253 132.387 377.8 132.32C381.012 133.337 384.46 133.337 387.673 132.32C389.068 132.367 390.447 132.633 391.76 133.107C394.234 133.982 396.468 135.428 398.28 137.327L408.206 150.747L399.72 158.08L394.886 153.827L398.173 181.673Z" fill="#263238"/>
<path d="M369.227 142.5C369.32 142.5 369.227 147.1 369.013 152.76C368.8 158.42 368.553 163.013 368.46 163.007C368.367 163 368.46 158.413 368.667 152.747C368.873 147.08 369.127 142.5 369.227 142.5Z" fill="#455A64"/>
<path d="M393.813 144.313C394.181 146.274 394.431 148.256 394.56 150.247C394.81 152.226 394.945 154.218 394.967 156.213C394.599 154.252 394.35 152.271 394.22 150.28C393.971 148.301 393.835 146.308 393.813 144.313Z" fill="#455A64"/>
<path d="M378.999 132.62C379.059 132.7 378.826 132.973 378.486 133.247C378.146 133.52 377.819 133.667 377.759 133.593C377.699 133.52 377.933 133.24 378.273 132.967C378.613 132.693 378.939 132.547 378.999 132.62Z" fill="#455A64"/>
<path d="M380.373 132.92C380.46 132.967 380.373 133.247 380.307 133.587C380.24 133.927 380.127 134.173 380.027 134.167C379.927 134.16 379.873 133.853 379.973 133.5C380.073 133.147 380.293 132.873 380.373 132.92Z" fill="#455A64"/>
<path d="M381.94 133.12C382.04 133.12 382.126 133.373 382.146 133.7C382.166 134.027 382.093 134.287 382 134.293C381.906 134.3 381.813 134.04 381.8 133.713C381.786 133.387 381.846 133.12 381.94 133.12Z" fill="#455A64"/>
<path d="M383.953 132.967C384.053 132.967 384.133 133.247 384.227 133.58C384.32 133.913 384.38 134.2 384.3 134.247C384.22 134.293 383.993 134.053 383.887 133.673C383.78 133.293 383.86 132.967 383.953 132.967Z" fill="#455A64"/>
<path d="M386.2 132.727C386.293 132.693 386.446 132.893 386.626 133.133C386.806 133.373 386.96 133.573 386.9 133.653C386.84 133.733 386.566 133.653 386.353 133.34C386.14 133.027 386.113 132.76 386.2 132.727Z" fill="#455A64"/>
<path d="M387.38 132.387C387.433 132.307 387.666 132.387 387.893 132.513C388.12 132.64 388.266 132.847 388.213 132.927C388.16 133.007 387.933 132.927 387.706 132.807C387.48 132.687 387.333 132.467 387.38 132.387Z" fill="#455A64"/>
<path d="M394.447 150.873C394.447 150.973 388.773 151.053 381.78 151.06C374.787 151.067 369.113 150.987 369.113 150.893C369.113 150.8 374.787 150.713 381.78 150.707C388.773 150.7 394.447 150.78 394.447 150.873Z" fill="#FAFAFA"/>
<path d="M394.666 152.747C394.666 152.847 388.993 152.927 382 152.933C375.006 152.94 369.333 152.86 369.333 152.767C369.333 152.673 375.006 152.587 382 152.587C388.993 152.587 394.666 152.667 394.666 152.747Z" fill="#FAFAFA"/>
<path d="M394.887 154.62C394.887 154.72 389.053 154.847 381.866 154.913C374.68 154.98 368.84 154.913 368.84 154.853C368.84 154.793 374.666 154.627 381.86 154.567C389.053 154.507 394.887 154.527 394.887 154.62Z" fill="#FAFAFA"/>
<path d="M403.106 143.653C402.795 144.093 402.433 144.494 402.026 144.847C401.32 145.513 400.306 146.48 399.146 147.46C397.986 148.44 396.9 149.28 396.093 149.86C395.682 150.199 395.235 150.492 394.76 150.733C395.125 150.338 395.529 149.981 395.966 149.667L398.953 147.193L401.886 144.667C402.262 144.293 402.67 143.954 403.106 143.653Z" fill="#FAFAFA"/>
<path d="M404.667 145.333C404.279 145.795 403.848 146.22 403.38 146.6C402.553 147.34 401.38 148.327 400.047 149.367C398.713 150.407 397.447 151.287 396.513 151.893C396.028 152.252 395.508 152.561 394.96 152.813C395.394 152.396 395.868 152.021 396.373 151.693C397.267 151.027 398.493 150.12 399.84 149.093C401.187 148.067 402.373 147.093 403.24 146.427C403.68 146.019 404.158 145.653 404.667 145.333Z" fill="#FAFAFA"/>
<path d="M405.419 146.913C403.991 148.368 402.479 149.739 400.893 151.02C399.38 152.387 397.791 153.667 396.133 154.853C397.566 153.403 399.08 152.034 400.666 150.753C402.18 149.389 403.767 148.107 405.419 146.913Z" fill="#FAFAFA"/>
<path d="M368.866 151.46C368.398 151.268 367.964 151.003 367.58 150.673C366.625 149.926 365.733 149.101 364.913 148.207C363.94 147.18 363.08 146.207 362.466 145.54C362.11 145.185 361.795 144.791 361.526 144.367C361.936 144.656 362.312 144.992 362.646 145.367C363.313 146.033 364.193 146.94 365.166 147.967C365.978 148.848 366.835 149.687 367.733 150.48C368.13 150.784 368.508 151.111 368.866 151.46Z" fill="#FAFAFA"/>
<path d="M368 153.747C367.52 153.475 367.072 153.148 366.667 152.773C365.9 152.107 364.86 151.207 363.773 150.107C362.687 149.007 361.733 148.02 361.107 147.26C360.727 146.871 360.393 146.439 360.113 145.973C360.539 146.309 360.931 146.684 361.287 147.093C361.953 147.807 362.953 148.793 364.04 149.86C365.127 150.927 366.133 151.86 366.86 152.527C367.282 152.892 367.664 153.301 368 153.747Z" fill="#FAFAFA"/>
<path d="M367.08 155.373C366.641 155.039 366.235 154.664 365.867 154.253C365.147 153.54 364.147 152.56 363.014 151.5C361.88 150.44 360.827 149.5 360.06 148.833C359.626 148.496 359.222 148.121 358.854 147.713C359.346 147.966 359.805 148.28 360.22 148.647C361.027 149.267 362.113 150.167 363.253 151.227C364.393 152.287 365.367 153.307 366.047 154.067C366.439 154.462 366.786 154.9 367.08 155.373Z" fill="#FAFAFA"/>
<path d="M398.113 180.4C398.113 180.493 391.387 180.4 383.093 180.193C374.8 179.987 368.08 179.74 368.08 179.647C368.08 179.553 374.807 179.647 383.1 179.847C391.393 180.047 398.113 180.3 398.113 180.4Z" fill="#455A64"/>
<path d="M465.666 238C466.531 238.433 467.3 239.035 467.926 239.772C468.553 240.508 469.024 241.364 469.313 242.287C469.874 244.139 470.006 246.095 469.7 248.007C469.206 251.707 467.033 255.407 464.706 258.327C461.64 255.547 461.006 250.78 460.84 248.327C460.58 244.48 462.44 237.353 465.666 237.987" fill="#4275F4"/>
<path d="M468.22 264.527C468.026 263.463 468.118 262.368 468.486 261.351C468.854 260.335 469.484 259.434 470.313 258.74C471.147 258.065 472.107 257.562 473.137 257.26C474.167 256.958 475.246 256.863 476.313 256.98C476.812 256.981 477.305 257.093 477.757 257.306C478.208 257.519 478.608 257.829 478.926 258.213C479.166 258.617 479.293 259.077 479.293 259.547C479.293 260.016 479.166 260.477 478.926 260.88C478.44 261.679 477.749 262.335 476.926 262.78C474.193 264.427 471.24 265.52 468.2 264.54" fill="#4275F4"/>
<path d="M464 275.82C464.016 275.563 464.056 275.309 464.12 275.06C464.233 274.527 464.373 273.833 464.54 273.007C464.931 270.722 465.689 268.515 466.787 266.473C467.927 264.434 469.588 262.734 471.6 261.547C472.211 261.198 472.863 260.925 473.54 260.733C473.723 260.676 473.911 260.632 474.1 260.6C474.227 260.6 474.293 260.6 474.293 260.6C473.39 260.888 472.519 261.268 471.693 261.733C469.75 262.945 468.145 264.628 467.027 266.627C465.95 268.649 465.177 270.819 464.733 273.067C464.527 273.927 464.36 274.627 464.233 275.1C464.175 275.346 464.097 275.587 464 275.82Z" fill="#263238"/>
<path d="M464.727 243.567C464.741 243.677 464.741 243.789 464.727 243.9C464.727 244.147 464.727 244.46 464.767 244.853C464.767 245.687 464.82 246.887 464.84 248.373C464.88 251.347 464.88 255.453 464.773 259.987C464.667 264.52 464.48 268.62 464.307 271.593C464.213 273.073 464.133 274.26 464.067 275.1C464.067 275.493 464.007 275.807 463.98 276.053C463.98 276.166 463.964 276.278 463.933 276.387C463.926 276.276 463.926 276.164 463.933 276.053C463.933 275.807 463.933 275.487 463.933 275.093C463.973 274.233 464.02 273.04 464.087 271.58C464.213 268.613 464.373 264.513 464.48 259.98C464.587 255.447 464.613 251.313 464.62 248.373C464.62 246.913 464.62 245.707 464.62 244.853C464.62 244.46 464.62 244.147 464.62 243.9C464.646 243.786 464.682 243.675 464.727 243.567Z" fill="#263238"/>
<path d="M462.78 266.667C462.447 264.41 461.581 262.265 460.253 260.41C458.926 258.555 457.175 257.043 455.146 256C454.113 255.48 452.76 255.133 451.886 255.887C451.013 256.64 451.18 258.047 451.58 259.133C452.453 261.389 453.976 263.336 455.955 264.728C457.934 266.12 460.281 266.894 462.7 266.953" fill="#4275F4"/>
<path d="M455.586 259.56C455.818 259.638 456.041 259.739 456.253 259.86C456.507 259.985 456.754 260.123 456.993 260.273C457.266 260.453 457.607 260.633 457.933 260.887C458.307 261.148 458.665 261.431 459.006 261.733C459.408 262.068 459.788 262.426 460.146 262.807C461.82 264.546 463.038 266.671 463.693 268.993C463.831 269.496 463.942 270.006 464.026 270.52C464.108 270.961 464.161 271.406 464.187 271.853C464.22 272.226 464.231 272.6 464.22 272.973C464.222 273.256 464.209 273.539 464.18 273.82C464.175 274.063 464.143 274.304 464.086 274.54C464.026 274.54 464.153 273.507 464 271.873C463.96 271.426 463.896 270.981 463.807 270.54C463.715 270.034 463.597 269.533 463.453 269.04C463.11 267.911 462.645 266.822 462.066 265.793C461.469 264.777 460.765 263.827 459.966 262.96C459.618 262.58 459.248 262.219 458.86 261.88C458.528 261.578 458.181 261.294 457.82 261.027C456.493 260.06 455.56 259.613 455.586 259.56Z" fill="#263238"/>
<path d="M355.174 112.113C354.627 111.713 353.944 111.546 353.274 111.648C352.604 111.751 352.003 112.115 351.601 112.66C351.407 112.377 351.159 112.135 350.871 111.95C350.583 111.765 350.26 111.64 349.922 111.582C349.584 111.524 349.238 111.535 348.905 111.614C348.571 111.692 348.257 111.837 347.98 112.04C347.488 112.505 347.174 113.127 347.092 113.799C347.011 114.471 347.167 115.151 347.534 115.72C348.54 117.293 350.447 117.973 351.627 119.393C352.814 117.973 354.621 117.393 355.627 115.793C355.993 115.224 356.148 114.544 356.065 113.871C355.983 113.199 355.667 112.577 355.174 112.113Z" fill="#4275F4"/>
<path d="M364.667 126.14L364.234 126.08L362.9 125.887L357.887 125.12H357.954C356.163 126.353 354.07 127.077 351.9 127.213C349.873 127.338 347.847 126.951 346.009 126.087C344.171 125.223 342.579 123.911 341.381 122.271C340.183 120.631 339.417 118.716 339.153 116.702C338.89 114.688 339.137 112.641 339.872 110.747C340.607 108.854 341.806 107.176 343.36 105.868C344.914 104.56 346.772 103.664 348.762 103.262C350.753 102.86 352.813 102.966 354.753 103.569C356.692 104.172 358.448 105.253 359.86 106.713C361.783 108.701 362.961 111.291 363.194 114.047C363.389 116.202 362.99 118.369 362.04 120.313V120.233L363.974 124.633L364.474 125.773C364.58 126.027 364.634 126.153 364.627 126.147L364.574 126.04L364.427 125.74L363.887 124.593L361.887 120.313V120.273V120.233C362.856 118.202 363.225 115.936 362.95 113.701C362.676 111.467 361.769 109.358 360.336 107.622C358.904 105.885 357.005 104.594 354.864 103.9C352.722 103.206 350.427 103.137 348.249 103.703C346.07 104.269 344.098 105.445 342.565 107.093C341.031 108.741 340.001 110.793 339.594 113.007C339.187 115.22 339.42 117.505 340.267 119.59C341.114 121.676 342.539 123.476 344.374 124.78C346.336 126.175 348.676 126.939 351.083 126.97C353.49 127.001 355.85 126.298 357.847 124.953H357.88L362.807 125.827L364.14 126.067L364.487 126.133L364.667 126.14Z" fill="#263238"/>
</svg>
